<?xml version="1.0" encoding="utf-8"?>
<!-- Generator: Adobe Illustrator 25.0.0, SVG Export Plug-In . SVG Version: 6.00 Build 0)  -->
<svg version="1.1" xmlns="http://www.w3.org/2000/svg" xmlns:xlink="http://www.w3.org/1999/xlink" x="0px" y="0px"
	 viewBox="0 0 1296 864" style="enable-background:new 0 0 1296 864;" xml:space="preserve">
<style type="text/css">
	.st0{fill:#FF00F3;}
	.st1{display:none;}
</style>
<g id="Layer_1">
	<g>
		<circle cx="611" cy="381.5" r="322.5"/>
		<path class="st0" d="M892,438l-1.35,1.26l-207.17-0.72c0.11-0.18,0.23-0.36,0.33-0.54H892z"/>
		<g>
			<path class="st0" d="M683.81,438c-0.1,0.18-0.22,0.36-0.33,0.54l-143.51-0.49L526.11,438H683.81z"/>
			<path class="st0" d="M716,125c-37.02,0-71.77,9.77-101.79,26.87C583.42,133.53,547.44,123,509,123c-113.77,0-206,92.23-206,206
				c0,39.75,11.27,76.86,30.77,108.34c0,0,248.61,244.36,292.92,266.51c0,0,258.75-232.35,265.29-265.74
				c-0.23,0.38-0.46,0.77-0.7,1.15h-0.63l-207.17-0.72l-143.51-0.49L526.11,438H892c-0.01,0.04-0.01,0.07-0.02,0.11
				C911.02,406.9,922,370.24,922,331C922,217.23,829.77,125,716,125z M652.31,230.12c2.42-2.38,4.97-3.57,7.62-3.57
				c3.36,0,5.05,1.68,5.05,5.04c0,2.74-1.16,5.3-3.46,7.68c-2.31,2.39-4.83,3.58-7.57,3.58c-3.51,0-5.27-1.76-5.27-5.28
				C648.68,234.99,649.89,232.51,652.31,230.12z M384.19,286.35c2.39-2.89,5.22-4.34,8.51-4.34c4.76,0,7.15,2.66,7.15,7.98
				c0,2.65-0.8,4.92-2.4,6.8c-1.61,1.87-3.58,2.81-5.93,2.81c-4.06,0-6.02-2.11-5.86-6.33c0.08-1.72-0.08-2.58-0.47-2.58
				c-1.25,0-1.87,2.07-1.87,6.21c0,6.49,3.18,11.89,9.55,16.19c6.37,4.29,14.4,6.45,24.1,6.45c17.12,0,32.64-6.34,46.55-19
				c6.1-5.55,11.3-11.22,15.6-17c4.69-6.26,14.93-21.42,30.72-45.5c7.89-11.88,17.2-23.8,27.91-35.77
				c10.71-11.96,19.81-20.52,27.32-25.68c-12.2-10.39-30.1-15.59-53.71-15.59c-32.99,0-61.67,11.92-86.07,35.76
				c-20.01,19.55-30.01,37.96-30.01,55.23c0,8.76,2.81,15.72,8.44,20.88c5.63,5.16,13.25,7.73,22.86,7.73
				c15.72,0,31.96-7.54,48.73-22.63c16.76-15.08,25.15-29.74,25.15-43.97c0-11.33-5.83-17-17.47-17c-11.65,0-24.14,6.5-37.47,19.51
				c-13.33,13-19.99,25.2-19.99,36.61c0,2.81,0.94,5.23,2.83,7.26c1.88,2.03,4.08,3.05,6.6,3.05c1.33,0,2,0.35,2,1.05
				c0,0.63-0.74,0.94-2.23,0.94c-3.77,0-6.95-1.7-9.54-5.1c-2.59-3.39-3.88-7.55-3.88-12.47c0-12.19,6.68-24.06,20.05-35.62
				s27.09-17.34,41.16-17.34c13.44,0,20.17,6.21,20.17,18.64c0,15.17-8.56,30.49-25.68,45.97c-17.12,15.48-34.01,23.22-50.66,23.22
				c-10.87,0-19.56-3.27-26.09-9.8c-6.53-6.52-9.79-15.26-9.79-26.2c0-22.13,12.49-42.31,37.46-60.57
				c24.98-18.25,52.59-27.38,82.85-27.38c22.98,0,42.29,5.12,57.93,15.36c14.3-8.91,28.14-13.37,41.51-13.37
				c10.47,0,18.89,3.13,25.26,9.38c6.38,6.24,9.56,14.48,9.56,24.71c0,4.06-0.54,8.51-1.62,13.35c-1.08,4.85-2.12,7.27-3.13,7.27
				c-0.78,0-1.17-0.39-1.17-1.18c0-0.23,0.08-0.58,0.23-1.05c2.07-5.47,3.11-11.36,3.11-17.69c0-9.83-2.93-17.74-8.79-23.71
				c-5.87-5.98-13.61-8.96-23.22-8.96c-12.98,0-26.35,4.26-40.1,12.78c11.72,9.38,17.59,20.01,17.59,31.89
				c0,10.01-4.03,18.72-12.07,26.15c-8.04,7.43-17.46,11.14-28.23,11.14c-4.22,0-8.75-0.85-13.59-2.54
				c-4.85-1.69-7.27-3.29-7.27-4.78c0.16-0.48,0.47-0.71,0.94-0.71c0.39,0,1.02,0.24,1.87,0.71c4.85,2.77,9.73,4.15,14.65,4.15
				c8.9,0,16.53-3.82,22.89-11.49c6.37-7.66,9.55-16.8,9.55-27.44c0-9.14-3.28-17.31-9.85-24.5
				c-16.97,12.66-33.07,34.94-48.31,66.84c-9.23,19.3-17.67,33.22-25.33,41.74c-7.66,8.52-18.41,16.22-32.25,23.1
				c-16.34,7.97-30.92,11.96-43.74,11.96c-10.47,0-19.19-2.4-26.15-7.21c-6.95-4.81-10.43-10.81-10.43-18
				C380.62,292.68,381.81,289.24,384.19,286.35z M892.19,410.98c-6.84,5.16-14.95,7.74-24.33,7.74c-5.32,0-9.56-1.51-12.73-4.52
				c-3.16-3.01-4.74-7.05-4.74-12.13c0-1.83,0.2-3.65,0.61-5.45c-11.94,15.4-21.13,23.1-27.59,23.1c-3.68,0-6.75-1.33-9.21-3.99
				c-2.47-2.66-3.7-5.98-3.7-9.97c0-3.04,0.87-6.56,2.61-10.58c-1.08,1.2-2.22,2.47-3.44,3.81c-12.05,13.15-22.29,19.73-30.75,19.73
				c-5.47,0-10.17-2.1-14.08-6.28c-3.91-4.18-5.87-9.16-5.87-14.95v-0.13c-1.22,1.47-2.53,3.03-3.93,4.68
				c-9.39,11.12-16.83,16.68-22.31,16.68c-3.44,0-6.36-1.39-8.74-4.17c-2.39-2.77-3.58-6.11-3.58-10.02c0-3.05,1.52-7.31,4.57-12.78
				l-2.35,3.16c-7.19,9.23-12.47,15.4-15.83,18.53c-3.67,3.52-7.15,5.28-10.43,5.28c-3.44,0-6.33-1.35-8.68-4.05s-3.52-6-3.52-9.91
				c0-1.24,0.13-2.54,0.41-3.89c-9.89,11.9-17.52,17.85-22.89,17.85c-3.61,0-6.54-1.35-8.81-4.05s-3.4-6.16-3.4-10.38
				c0-4.22,1.4-9.1,4.22-14.65c-13.68,19.38-23.85,29.08-30.49,29.08c-4.14,0-7.62-1.78-10.44-5.34c-2.81-3.55-4.22-8.03-4.22-13.42
				c0-1.87,0.17-3.71,0.51-5.53c-2.64,1.2-5.19,1.8-7.65,1.8c-2.58,0-4.87-0.51-6.86-1.54c-10.99,16.02-21.31,24.03-30.96,24.03
				c-5,0-9.26-2.12-12.8-6.36c-3.54-4.24-5.3-9.32-5.3-15.23c0-2.1,0.21-4.2,0.64-6.28c-3.57,2.58-7,3.88-10.29,3.88
				c-5.95,0-8.92-3.44-8.92-10.32c0-2.19,0.46-4.97,1.4-8.33c-4.92,4.3-8.93,8.56-12.02,12.78c-3.09,4.22-8.42,12.83-16,25.8
				c-4.15-0.31-6.57-0.47-7.27-0.47c-0.32,0-2.7,0.16-7.16,0.47l19.24-31.19c9.61-15.63,14.42-25.33,14.42-29.08
				c0-2.19-0.9-3.28-2.7-3.28c-4.39,0-12.34,8.42-23.86,25.26c-0.7,1.1-1.33,1.65-1.88,1.65c-0.31-0.08-0.47-0.31-0.47-0.71
				c0.08-0.39,0.24-0.7,0.47-0.94l2.12-2.93c1.52-2.03,2.98-3.93,4.38-5.7c-0.05-0.1-0.07-0.23-0.07-0.37
				c0-0.15,0.05-0.37,0.15-0.67c1.32-3.49,1.98-7.25,1.98-11.28c0-6.28-1.87-11.32-5.61-15.13c-3.74-3.81-8.68-5.72-14.81-5.72
				c-8.28,0-16.81,2.72-25.58,8.15c7.48,5.99,11.22,12.77,11.22,20.35c0,6.38-2.57,11.94-7.7,16.68s-11.14,7.11-18.01,7.11
				c-2.69,0-5.58-0.54-8.67-1.62c-3.09-1.08-4.63-2.1-4.63-3.06c0.1-0.3,0.3-0.45,0.6-0.45c0.24,0,0.64,0.15,1.19,0.46
				c3.09,1.76,6.2,2.65,9.34,2.65c5.68,0,10.55-2.45,14.61-7.33c4.06-4.89,6.09-10.73,6.09-17.51c0-5.83-2.1-11.04-6.29-15.63
				c-10.82,8.08-21.09,22.29-30.82,42.64c-5.88,12.31-11.27,21.19-16.15,26.62c-4.89,5.44-11.75,10.35-20.57,14.74
				c-10.43,5.09-19.73,7.63-27.9,7.63c-6.69,0-12.25-1.53-16.68-4.6c-4.44-3.07-6.66-6.89-6.66-11.48c0-2.55,0.76-4.74,2.28-6.58
				c1.52-1.85,3.33-2.77,5.42-2.77c3.04,0,4.57,1.69,4.57,5.08c0,1.7-0.52,3.15-1.54,4.34c-1.02,1.2-2.28,1.8-3.78,1.8
				c-2.59,0-3.84-1.35-3.74-4.04c0.05-1.1-0.05-1.65-0.29-1.65c-0.8,0-1.2,1.32-1.2,3.97c0,4.14,2.03,7.58,6.09,10.32
				c4.07,2.74,9.19,4.11,15.38,4.11c10.92,0,20.82-4.03,29.69-12.11c3.89-3.54,7.21-7.16,9.95-10.85
				c2.99-3.99,9.53-13.66,19.6-29.02c5.04-7.58,10.97-15.19,17.8-22.82c6.83-7.63,12.64-13.09,17.43-16.38
				c-7.78-6.63-19.2-9.95-34.26-9.95c-21.04,0-39.34,7.61-54.9,22.82c-12.77,12.46-19.15,24.21-19.15,35.23
				c0,5.58,1.79,10.02,5.38,13.31c3.59,3.29,8.46,4.94,14.59,4.94c10.02,0,20.38-4.81,31.08-14.44
				c10.7-9.62,16.05-18.97,16.05-28.05c0-7.23-3.72-10.84-11.15-10.84s-15.4,4.14-23.9,12.44s-12.75,16.08-12.75,23.35
				c0,1.8,0.6,3.34,1.8,4.64c1.2,1.3,2.61,1.94,4.21,1.94c0.85,0,1.28,0.23,1.28,0.67c0,0.4-0.48,0.6-1.43,0.6
				c-2.4,0-4.43-1.08-6.08-3.25c-1.65-2.17-2.48-4.82-2.48-7.96c0-7.77,4.27-15.34,12.8-22.72c8.52-7.37,17.27-11.06,26.25-11.06
				c8.58,0,12.87,3.96,12.87,11.89c0,9.68-5.46,19.45-16.39,29.33c-10.92,9.87-21.69,14.81-32.31,14.81
				c-6.93,0-12.48-2.09-16.64-6.25c-4.17-4.16-6.25-9.73-6.25-16.72c0-14.11,7.97-26.99,23.9-38.63
				c15.93-11.65,33.55-17.47,52.85-17.47c14.66,0,26.98,3.27,36.95,9.8c9.13-5.68,17.95-8.53,26.48-8.53c6.68,0,12.05,2,16.12,5.98
				c4.06,3.99,6.1,9.24,6.1,15.77c0,2.59-0.35,5.43-1.04,8.52c-0.1,0.47-0.21,0.91-0.31,1.31c8.42-10.3,14.36-15.45,17.8-15.45
				c6.27,0,9.4,4.02,9.4,12.07c0,6.03-3.21,14-9.61,23.93c4.06-4.69,7.93-8.52,11.6-11.5c2.97-6.95,6.67-12.78,11.09-17.47
				c4.41-4.69,8.38-7.03,11.9-7.03c2.42,0,3.63,1.05,3.63,3.16c0,3.76-5.43,9.11-16.3,16.07c-1.72,1.09-4.3,2.69-7.74,4.8l-1.4,1.18
				c-1.1,3.59-1.65,6.56-1.65,8.91c0,6.57,2.47,9.85,7.41,9.85c3.36,0,6.88-1.53,10.57-4.6c2.82-10.2,10.83-20.11,24.03-29.74
				c11.81-8.65,21.54-12.98,29.19-12.98c7.15,0,10.73,3.94,10.73,11.82c0,9.85-5.03,21.71-15.09,35.59
				c1.66,1.03,3.53,1.54,5.61,1.54c2.5,0,5.28-0.8,8.35-2.41c2.51-10,10.22-19.22,23.12-27.65c12.74-8.36,22.75-12.54,30.02-12.54
				c4.85,0,7.27,2.34,7.27,7.03c0,2.19-0.67,4.66-1.99,7.39l28.87-48.36c-0.2,0.02-0.4,0.04-0.59,0.07l10.12-16.03l3.46-5.8
				c0.06,0.02,0.11,0.03,0.17,0.05l2.9-4.6c10.86-17.36,16.3-27.99,16.3-31.9c0-3.52-1.45-5.27-4.34-5.27
				c-4.3,0-11.34,6.17-21.11,18.52c-9.77,12.36-19.46,27.36-29.08,45.03c-1.8-0.31-4.1-0.47-6.92-0.47c-3.05,0-5.7,0.16-7.97,0.47
				l16.77-26.38c11.57-18.14,17.35-29.36,17.35-33.66c0-2.34-0.9-3.51-2.7-3.51c-3.84,0-11.79,8.38-23.85,25.15
				c-0.61,0.84-1.12,1.37-1.54,1.56c-0.08,0.1-0.15,0.21-0.23,0.32l-5.04,6.92c-14.72,20.44-25.95,30.66-33.7,30.66
				c-3.68,0-6.75-1.31-9.21-3.93c-2.47-2.62-3.7-5.88-3.7-9.79c0-4.1,2.21-10.12,6.62-18.05c-0.27,0.29-0.55,0.59-0.83,0.9
				c-5.95,6.58-11.55,9.88-16.8,9.88c-5.95,0-8.92-3.44-8.92-10.32c0-2.19,0.46-4.97,1.4-8.33c-4.92,4.3-8.93,8.56-12.02,12.78
				c-3.09,4.22-8.42,12.82-16,25.8c-4.15-0.31-6.57-0.47-7.27-0.47c-0.32,0-2.7,0.16-7.16,0.47l19.24-31.19
				c9.61-15.64,14.42-25.33,14.42-29.08c0-2.19-0.9-3.28-2.7-3.28c-4.39,0-12.34,8.42-23.86,25.26c-0.7,1.1-1.33,1.65-1.88,1.65
				c-0.31-0.08-0.47-0.32-0.47-0.71c0.08-0.39,0.24-0.7,0.47-0.94l2.12-2.93c12.05-16.06,20.24-24.09,24.54-24.09
				c6.27,0,9.4,4.02,9.4,12.07c0,6.02-3.21,14-9.61,23.93c4.06-4.7,7.93-8.52,11.6-11.5c2.97-6.95,6.67-12.78,11.09-17.47
				c4.41-4.69,8.38-7.03,11.9-7.03c2.42,0,3.63,1.05,3.63,3.16c0,3.75-5.43,9.11-16.3,16.07c-1.72,1.09-4.3,2.69-7.74,4.8l-1.4,1.18
				c-1.1,3.59-1.65,6.56-1.65,8.91c0,6.57,2.47,9.85,7.41,9.85c6.11,0,12.76-5.06,19.97-15.18c0.8-0.88,1.44-1.54,1.94-1.97
				l15.24-25.89c2.43,0.55,4.34,0.83,5.75,0.83c2.11,0,5.08-0.28,8.91-0.83l-26.62,43.74c-3.83,6.33-5.74,11.22-5.74,14.66
				c0,3.52,1.84,5.28,5.52,5.28c6.96,0,19.21-12.41,36.75-37.23c0.33-0.66,0.66-1.05,0.99-1.15c1.47-2.2,4.78-6.53,9.93-13.01
				c7.05-8.82,12.49-13.22,16.33-13.22c2.5,0,4.66,1.19,6.46,3.57c1.8,2.39,2.7,5.22,2.7,8.5c0,4.54-2.31,10.83-6.92,18.88
				c14.07-20.63,24.55-30.95,31.43-30.95c3.28,0,5.98,1.33,8.09,3.98c2.11,2.66,3.16,5.98,3.16,9.97c0,4.46-2.07,10.13-6.21,17
				c14.85-20.63,25.99-30.95,33.42-30.95c3.36,0,6.19,1.44,8.5,4.33c2.31,2.9,3.46,6.42,3.46,10.56c0,4.85-1.92,10.51-5.75,17
				c-0.07,0.08-3.44,5.08-10.08,15.01c-3.83,5.63-5.75,9.93-5.75,12.9c0,3.21,1.61,4.81,4.82,4.81c6.1,0,16.2-9.87,30.29-29.6
				l3.64-5.05l2.12-2.58c0.39-0.78,0.78-1.18,1.17-1.18c0.47,0,0.7,0.24,0.7,0.71c-0.07,0.23-0.46,0.86-1.17,1.88l-5.05,6.92
				c-14.71,20.44-25.59,30.66-32.63,30.66c-3.68,0-6.7-1.37-9.04-4.11c-2.35-2.73-3.52-6.25-3.52-10.55c0-4.38,1.48-9.11,4.45-14.19
				c0.55-0.94,3.4-5.12,8.56-12.55c6.57-9.38,9.85-15.51,9.85-18.41c0-3.2-1.6-4.8-4.8-4.8c-8.44,0-21.81,14.15-40.12,42.47
				c0.26-0.01,0.53-0.03,0.81-0.05c-29.31,46.59-47.8,76.38-55.46,89.35c-7.74,13.22-11.61,21.54-11.61,24.98
				c0,3.52,1.6,5.28,4.81,5.28c5.11,0,12.77-6.38,22.99-19.14c0.88-2.7,2.24-5.58,4.08-8.65l21.34-35.88
				c2.66,0.54,4.73,0.82,6.22,0.82c1.48,0,4.14-0.28,7.97-0.82l-27.91,45.96c-2.81,4.69-4.22,8.84-4.22,12.43
				c0,3.52,1.48,5.28,4.46,5.28c7.89,0,20.56-14.74,37.99-44.21l11.49-19.46c2.42,0.54,4.46,0.82,6.1,0.82
				c1.95,0,4.73-0.28,8.32-0.82l-18.76,30.6c-8.91,14.54-13.37,23.88-13.37,28.03c0,3.36,1.61,5.04,4.82,5.04
				c5.45,0,13.88-7.48,25.26-22.45c0.67-5.63,3.27-11.45,7.79-17.42c5.31-7.04,12.46-13.09,21.45-18.18
				c7.59-4.37,13.76-6.56,18.53-6.56c5.79,0,8.68,3.44,8.68,10.32c0,5.39-1.82,10.78-5.45,16.18c-3.64,5.39-7.26,8.09-10.85,8.09
				c-3.52,0-5.28-1.76-5.28-5.28c0-4.14,3.6-7.97,10.79-11.49c5.55-2.73,8.33-6.33,8.33-10.79c0-3.51-1.92-5.27-5.75-5.27
				c-6.49,0-14.46,6.44-23.92,19.34c-9.46,12.9-14.19,23.73-14.19,32.49c0,7.34,3.44,11.02,10.33,11.02
				c9.12,0,20.97-8.68,35.55-26.05c0.48-0.89,0.99-1.81,1.54-2.74l19.7-33.06h-11.96l1.17-1.76h11.73l13.72-22.75
				c2.35,0.62,4.57,0.94,6.68,0.94c2.19,0,4.46-0.32,6.8-0.94l-13.48,22.75h15.36l-0.94,1.76h-15.36l-26.15,44.67
				c-3.2,5.4-4.8,9.7-4.8,12.9c0,3.52,1.83,5.28,5.51,5.28c5.87,0,15.04-8.4,27.51-25.2c1.03-2.63,2.52-5.24,4.46-7.81
				c4.18-5.55,8.5-8.33,12.96-8.33c0.78,0,1.48,0.16,2.11,0.47l9.38-11.49c2.81-3.36,6.57-8.02,11.26-13.96
				c1.32-5.47,3.36-10.16,6.09-14.07c2.74-3.91,5.44-5.86,8.09-5.86c1.25,0,1.88,0.68,1.88,2.05c0,3.12-4.89,9.31-14.66,18.59
				c-0.47,2.42-0.7,4.53-0.7,6.33c0,4.53,2.07,11.72,6.22,21.57c2.1,4.93,3.16,9.07,3.16,12.43
				C902.45,399.72,899.03,405.82,892.19,410.98z"/>
			<path class="st0" d="M380.62,296.67c0-3.99,1.19-7.43,3.57-10.32c2.39-2.89,5.22-4.34,8.51-4.34c4.76,0,7.15,2.66,7.15,7.98
				c0,2.65-0.8,4.92-2.4,6.8c-1.61,1.87-3.58,2.81-5.93,2.81c-4.06,0-6.02-2.11-5.86-6.33c0.08-1.72-0.08-2.58-0.47-2.58
				c-1.25,0-1.87,2.07-1.87,6.21c0,6.49,3.18,11.89,9.55,16.19c6.37,4.29,14.4,6.45,24.1,6.45c17.12,0,32.64-6.34,46.55-19
				c6.1-5.55,11.3-11.22,15.6-17c4.69-6.26,14.93-21.42,30.72-45.5c7.89-11.88,17.2-23.8,27.91-35.77
				c10.71-11.96,19.81-20.52,27.32-25.68c-12.2-10.39-30.1-15.59-53.71-15.59c-32.99,0-61.67,11.92-86.07,35.76
				c-20.01,19.55-30.01,37.96-30.01,55.23c0,8.76,2.81,15.72,8.44,20.88c5.63,5.16,13.25,7.73,22.86,7.73
				c15.72,0,31.96-7.54,48.73-22.63c16.76-15.08,25.15-29.74,25.15-43.97c0-11.33-5.83-17-17.47-17c-11.65,0-24.14,6.5-37.47,19.51
				c-13.33,13-19.99,25.2-19.99,36.61c0,2.81,0.94,5.23,2.83,7.26c1.88,2.03,4.08,3.05,6.6,3.05c1.33,0,2,0.35,2,1.05
				c0,0.63-0.74,0.94-2.23,0.94c-3.77,0-6.95-1.7-9.54-5.1c-2.59-3.39-3.88-7.55-3.88-12.47c0-12.19,6.68-24.06,20.05-35.62
				s27.09-17.34,41.16-17.34c13.44,0,20.17,6.21,20.17,18.64c0,15.17-8.56,30.49-25.68,45.97c-17.12,15.48-34.01,23.22-50.66,23.22
				c-10.87,0-19.56-3.27-26.09-9.8c-6.53-6.52-9.79-15.26-9.79-26.2c0-22.13,12.49-42.31,37.46-60.57
				c24.98-18.25,52.59-27.38,82.85-27.38c22.98,0,42.29,5.12,57.93,15.36c14.3-8.91,28.14-13.37,41.51-13.37
				c10.47,0,18.89,3.13,25.26,9.38c6.38,6.24,9.56,14.48,9.56,24.71c0,4.06-0.54,8.51-1.62,13.35c-1.08,4.85-2.12,7.27-3.13,7.27
				c-0.78,0-1.17-0.39-1.17-1.18c0-0.23,0.08-0.58,0.23-1.05c2.07-5.47,3.11-11.36,3.11-17.69c0-9.83-2.93-17.74-8.79-23.71
				c-5.87-5.98-13.61-8.96-23.22-8.96c-12.98,0-26.35,4.26-40.1,12.78c11.72,9.38,17.59,20.01,17.59,31.89
				c0,10.01-4.03,18.72-12.07,26.15c-8.04,7.43-17.46,11.14-28.23,11.14c-4.22,0-8.75-0.85-13.59-2.54
				c-4.85-1.69-7.27-3.29-7.27-4.78c0.16-0.48,0.47-0.71,0.94-0.71c0.39,0,1.02,0.24,1.87,0.71c4.85,2.77,9.73,4.15,14.65,4.15
				c8.9,0,16.53-3.82,22.89-11.49c6.37-7.66,9.55-16.8,9.55-27.44c0-9.14-3.28-17.31-9.85-24.5
				c-16.97,12.66-33.07,34.94-48.31,66.84c-9.23,19.3-17.67,33.22-25.33,41.74c-7.66,8.52-18.41,16.22-32.25,23.1
				c-16.34,7.97-30.92,11.96-43.74,11.96c-10.47,0-19.19-2.4-26.15-7.21C384.1,309.86,380.62,303.86,380.62,296.67z"/>
			<path class="st0" d="M648.68,237.57c0-2.58,1.21-5.06,3.63-7.45c2.42-2.38,4.97-3.57,7.62-3.57c3.36,0,5.05,1.68,5.05,5.04
				c0,2.74-1.16,5.3-3.46,7.68c-2.31,2.39-4.83,3.58-7.57,3.58C650.44,242.85,648.68,241.09,648.68,237.57z"/>
			<path class="st0" d="M890.65,439.26L892,438c-0.01,0.04-0.01,0.07-0.02,0.11c-0.23,0.38-0.46,0.77-0.7,1.15H890.65z"/>
			<path class="st0" d="M899.29,380.25c2.1,4.93,3.16,9.07,3.16,12.43c0,7.04-3.42,13.14-10.26,18.3
				c-6.84,5.16-14.95,7.74-24.33,7.74c-5.32,0-9.56-1.51-12.73-4.52c-3.16-3.01-4.74-7.05-4.74-12.13c0-1.83,0.2-3.65,0.61-5.45
				c-11.94,15.4-21.13,23.1-27.59,23.1c-3.68,0-6.75-1.33-9.21-3.99c-2.47-2.66-3.7-5.98-3.7-9.97c0-3.04,0.87-6.56,2.61-10.58
				c-1.08,1.2-2.22,2.47-3.44,3.81c-12.05,13.15-22.29,19.73-30.75,19.73c-5.47,0-10.17-2.1-14.08-6.28
				c-3.91-4.18-5.87-9.16-5.87-14.95v-0.13c-1.22,1.47-2.53,3.03-3.93,4.68c-9.39,11.12-16.83,16.68-22.31,16.68
				c-3.44,0-6.36-1.39-8.74-4.17c-2.39-2.77-3.58-6.11-3.58-10.02c0-3.05,1.52-7.31,4.57-12.78l-2.35,3.16
				c-7.19,9.23-12.47,15.4-15.83,18.53c-3.67,3.52-7.15,5.28-10.43,5.28c-3.44,0-6.33-1.35-8.68-4.05s-3.52-6-3.52-9.91
				c0-1.24,0.13-2.54,0.41-3.89c-9.89,11.9-17.52,17.85-22.89,17.85c-3.61,0-6.54-1.35-8.81-4.05s-3.4-6.16-3.4-10.38
				c0-4.22,1.4-9.1,4.22-14.65c-13.68,19.38-23.85,29.08-30.49,29.08c-4.14,0-7.62-1.78-10.44-5.34c-2.81-3.55-4.22-8.03-4.22-13.42
				c0-1.87,0.17-3.71,0.51-5.53c-2.64,1.2-5.19,1.8-7.65,1.8c-2.58,0-4.87-0.51-6.86-1.54c-10.99,16.02-21.31,24.03-30.96,24.03
				c-5,0-9.26-2.12-12.8-6.36c-3.54-4.24-5.3-9.32-5.3-15.23c0-2.1,0.21-4.2,0.64-6.28c-3.57,2.58-7,3.88-10.29,3.88
				c-5.95,0-8.92-3.44-8.92-10.32c0-2.19,0.46-4.97,1.4-8.33c-4.92,4.3-8.93,8.56-12.02,12.78c-3.09,4.22-8.42,12.83-16,25.8
				c-4.15-0.31-6.57-0.47-7.27-0.47c-0.32,0-2.7,0.16-7.16,0.47l19.24-31.19c9.61-15.63,14.42-25.33,14.42-29.08
				c0-2.19-0.9-3.28-2.7-3.28c-4.39,0-12.34,8.42-23.86,25.26c-0.7,1.1-1.33,1.65-1.88,1.65c-0.31-0.08-0.47-0.31-0.47-0.71
				c0.08-0.39,0.24-0.7,0.47-0.94l2.12-2.93c1.52-2.03,2.98-3.93,4.38-5.7c-0.05-0.1-0.07-0.23-0.07-0.37
				c0-0.15,0.05-0.37,0.15-0.67c1.32-3.49,1.98-7.25,1.98-11.28c0-6.28-1.87-11.32-5.61-15.13c-3.74-3.81-8.68-5.72-14.81-5.72
				c-8.28,0-16.81,2.72-25.58,8.15c7.48,5.99,11.22,12.77,11.22,20.35c0,6.38-2.57,11.94-7.7,16.68s-11.14,7.11-18.01,7.11
				c-2.69,0-5.58-0.54-8.67-1.62c-3.09-1.08-4.63-2.1-4.63-3.06c0.1-0.3,0.3-0.45,0.6-0.45c0.24,0,0.64,0.15,1.19,0.46
				c3.09,1.76,6.2,2.65,9.34,2.65c5.68,0,10.55-2.45,14.61-7.33c4.06-4.89,6.09-10.73,6.09-17.51c0-5.83-2.1-11.04-6.29-15.63
				c-10.82,8.08-21.09,22.29-30.82,42.64c-5.88,12.31-11.27,21.19-16.15,26.62c-4.89,5.44-11.75,10.35-20.57,14.74
				c-10.43,5.09-19.73,7.63-27.9,7.63c-6.69,0-12.25-1.53-16.68-4.6c-4.44-3.07-6.66-6.89-6.66-11.48c0-2.55,0.76-4.74,2.28-6.58
				c1.52-1.85,3.33-2.77,5.42-2.77c3.04,0,4.57,1.69,4.57,5.08c0,1.7-0.52,3.15-1.54,4.34c-1.02,1.2-2.28,1.8-3.78,1.8
				c-2.59,0-3.84-1.35-3.74-4.04c0.05-1.1-0.05-1.65-0.29-1.65c-0.8,0-1.2,1.32-1.2,3.97c0,4.14,2.03,7.58,6.09,10.32
				c4.07,2.74,9.19,4.11,15.38,4.11c10.92,0,20.82-4.03,29.69-12.11c3.89-3.54,7.21-7.16,9.95-10.85
				c2.99-3.99,9.53-13.66,19.6-29.02c5.04-7.58,10.97-15.19,17.8-22.82c6.83-7.63,12.64-13.09,17.43-16.38
				c-7.78-6.63-19.2-9.95-34.26-9.95c-21.04,0-39.34,7.61-54.9,22.82c-12.77,12.46-19.15,24.21-19.15,35.23
				c0,5.58,1.79,10.02,5.38,13.31c3.59,3.29,8.46,4.94,14.59,4.94c10.02,0,20.38-4.81,31.08-14.44
				c10.7-9.62,16.05-18.97,16.05-28.05c0-7.23-3.72-10.84-11.15-10.84s-15.4,4.14-23.9,12.44s-12.75,16.08-12.75,23.35
				c0,1.8,0.6,3.34,1.8,4.64c1.2,1.3,2.61,1.94,4.21,1.94c0.85,0,1.28,0.23,1.28,0.67c0,0.4-0.48,0.6-1.43,0.6
				c-2.4,0-4.43-1.08-6.08-3.25c-1.65-2.17-2.48-4.82-2.48-7.96c0-7.77,4.27-15.34,12.8-22.72c8.52-7.37,17.27-11.06,26.25-11.06
				c8.58,0,12.87,3.96,12.87,11.89c0,9.68-5.46,19.45-16.39,29.33c-10.92,9.87-21.69,14.81-32.31,14.81
				c-6.93,0-12.48-2.09-16.64-6.25c-4.17-4.16-6.25-9.73-6.25-16.72c0-14.11,7.97-26.99,23.9-38.63
				c15.93-11.65,33.55-17.47,52.85-17.47c14.66,0,26.98,3.27,36.95,9.8c9.13-5.68,17.95-8.53,26.48-8.53c6.68,0,12.05,2,16.12,5.98
				c4.06,3.99,6.1,9.24,6.1,15.77c0,2.59-0.35,5.43-1.04,8.52c-0.1,0.47-0.21,0.91-0.31,1.31c8.42-10.3,14.36-15.45,17.8-15.45
				c6.27,0,9.4,4.02,9.4,12.07c0,6.03-3.21,14-9.61,23.93c4.06-4.69,7.93-8.52,11.6-11.5c2.97-6.95,6.67-12.78,11.09-17.47
				c4.41-4.69,8.38-7.03,11.9-7.03c2.42,0,3.63,1.05,3.63,3.16c0,3.76-5.43,9.11-16.3,16.07c-1.72,1.09-4.3,2.69-7.74,4.8l-1.4,1.18
				c-1.1,3.59-1.65,6.56-1.65,8.91c0,6.57,2.47,9.85,7.41,9.85c3.36,0,6.88-1.53,10.57-4.6c2.82-10.2,10.83-20.11,24.03-29.74
				c11.81-8.65,21.54-12.98,29.19-12.98c7.15,0,10.73,3.94,10.73,11.82c0,9.85-5.03,21.71-15.09,35.59
				c1.66,1.03,3.53,1.54,5.61,1.54c2.5,0,5.28-0.8,8.35-2.41c2.51-10,10.22-19.22,23.12-27.65c12.74-8.36,22.75-12.54,30.02-12.54
				c4.85,0,7.27,2.34,7.27,7.03c0,2.19-0.67,4.66-1.99,7.39l28.87-48.36c-0.2,0.02-0.4,0.04-0.59,0.07l10.12-16.03l3.46-5.8
				c0.06,0.02,0.11,0.03,0.17,0.05l2.9-4.6c10.86-17.36,16.3-27.99,16.3-31.9c0-3.52-1.45-5.27-4.34-5.27
				c-4.3,0-11.34,6.17-21.11,18.52c-9.77,12.36-19.46,27.36-29.08,45.03c-1.8-0.31-4.1-0.47-6.92-0.47c-3.05,0-5.7,0.16-7.97,0.47
				l16.77-26.38c11.57-18.14,17.35-29.36,17.35-33.66c0-2.34-0.9-3.51-2.7-3.51c-3.84,0-11.79,8.38-23.85,25.15
				c-0.61,0.84-1.12,1.37-1.54,1.56c-0.08,0.1-0.15,0.21-0.23,0.32l-5.04,6.92c-14.72,20.44-25.95,30.66-33.7,30.66
				c-3.68,0-6.75-1.31-9.21-3.93c-2.47-2.62-3.7-5.88-3.7-9.79c0-4.1,2.21-10.12,6.62-18.05c-0.27,0.29-0.55,0.59-0.83,0.9
				c-5.95,6.58-11.55,9.88-16.8,9.88c-5.95,0-8.92-3.44-8.92-10.32c0-2.19,0.46-4.97,1.4-8.33c-4.92,4.3-8.93,8.56-12.02,12.78
				c-3.09,4.22-8.42,12.82-16,25.8c-4.15-0.31-6.57-0.47-7.27-0.47c-0.32,0-2.7,0.16-7.16,0.47l19.24-31.19
				c9.61-15.64,14.42-25.33,14.42-29.08c0-2.19-0.9-3.28-2.7-3.28c-4.39,0-12.34,8.42-23.86,25.26c-0.7,1.1-1.33,1.65-1.88,1.65
				c-0.31-0.08-0.47-0.32-0.47-0.71c0.08-0.39,0.24-0.7,0.47-0.94l2.12-2.93c12.05-16.06,20.24-24.09,24.54-24.09
				c6.27,0,9.4,4.02,9.4,12.07c0,6.02-3.21,14-9.61,23.93c4.06-4.7,7.93-8.52,11.6-11.5c2.97-6.95,6.67-12.78,11.09-17.47
				c4.41-4.69,8.38-7.03,11.9-7.03c2.42,0,3.63,1.05,3.63,3.16c0,3.75-5.43,9.11-16.3,16.07c-1.72,1.09-4.3,2.69-7.74,4.8l-1.4,1.18
				c-1.1,3.59-1.65,6.56-1.65,8.91c0,6.57,2.47,9.85,7.41,9.85c6.11,0,12.76-5.06,19.97-15.18c0.8-0.88,1.44-1.54,1.94-1.97
				l15.24-25.89c2.43,0.55,4.34,0.83,5.75,0.83c2.11,0,5.08-0.28,8.91-0.83l-26.62,43.74c-3.83,6.33-5.74,11.22-5.74,14.66
				c0,3.52,1.84,5.28,5.52,5.28c6.96,0,19.21-12.41,36.75-37.23c0.33-0.66,0.66-1.05,0.99-1.15c1.47-2.2,4.78-6.53,9.93-13.01
				c7.05-8.82,12.49-13.22,16.33-13.22c2.5,0,4.66,1.19,6.46,3.57c1.8,2.39,2.7,5.22,2.7,8.5c0,4.54-2.31,10.83-6.92,18.88
				c14.07-20.63,24.55-30.95,31.43-30.95c3.28,0,5.98,1.33,8.09,3.98c2.11,2.66,3.16,5.98,3.16,9.97c0,4.46-2.07,10.13-6.21,17
				c14.85-20.63,25.99-30.95,33.42-30.95c3.36,0,6.19,1.44,8.5,4.33c2.31,2.9,3.46,6.42,3.46,10.56c0,4.85-1.92,10.51-5.75,17
				c-0.07,0.08-3.44,5.08-10.08,15.01c-3.83,5.63-5.75,9.93-5.75,12.9c0,3.21,1.61,4.81,4.82,4.81c6.1,0,16.2-9.87,30.29-29.6
				l3.64-5.05l2.12-2.58c0.39-0.78,0.78-1.18,1.17-1.18c0.47,0,0.7,0.24,0.7,0.71c-0.07,0.23-0.46,0.86-1.17,1.88l-5.05,6.92
				c-14.71,20.44-25.59,30.66-32.63,30.66c-3.68,0-6.7-1.37-9.04-4.11c-2.35-2.73-3.52-6.25-3.52-10.55c0-4.38,1.48-9.11,4.45-14.19
				c0.55-0.94,3.4-5.12,8.56-12.55c6.57-9.38,9.85-15.51,9.85-18.41c0-3.2-1.6-4.8-4.8-4.8c-8.44,0-21.81,14.15-40.12,42.47
				c0.26-0.01,0.53-0.03,0.81-0.05c-29.31,46.59-47.8,76.38-55.46,89.35c-7.74,13.22-11.61,21.54-11.61,24.98
				c0,3.52,1.6,5.28,4.81,5.28c5.11,0,12.77-6.38,22.99-19.14c0.88-2.7,2.24-5.58,4.08-8.65l21.34-35.88
				c2.66,0.54,4.73,0.82,6.22,0.82c1.48,0,4.14-0.28,7.97-0.82l-27.91,45.96c-2.81,4.69-4.22,8.84-4.22,12.43
				c0,3.52,1.48,5.28,4.46,5.28c7.89,0,20.56-14.74,37.99-44.21l11.49-19.46c2.42,0.54,4.46,0.82,6.1,0.82
				c1.95,0,4.73-0.28,8.32-0.82l-18.76,30.6c-8.91,14.54-13.37,23.88-13.37,28.03c0,3.36,1.61,5.04,4.82,5.04
				c5.45,0,13.88-7.48,25.26-22.45c0.67-5.63,3.27-11.45,7.79-17.42c5.31-7.04,12.46-13.09,21.45-18.18
				c7.59-4.37,13.76-6.56,18.53-6.56c5.79,0,8.68,3.44,8.68,10.32c0,5.39-1.82,10.78-5.45,16.18c-3.64,5.39-7.26,8.09-10.85,8.09
				c-3.52,0-5.28-1.76-5.28-5.28c0-4.14,3.6-7.97,10.79-11.49c5.55-2.73,8.33-6.33,8.33-10.79c0-3.51-1.92-5.27-5.75-5.27
				c-6.49,0-14.46,6.44-23.92,19.34c-9.46,12.9-14.19,23.73-14.19,32.49c0,7.34,3.44,11.02,10.33,11.02
				c9.12,0,20.97-8.68,35.55-26.05c0.48-0.89,0.99-1.81,1.54-2.74l19.7-33.06h-11.96l1.17-1.76h11.73l13.72-22.75
				c2.35,0.62,4.57,0.94,6.68,0.94c2.19,0,4.46-0.32,6.8-0.94l-13.48,22.75h15.36l-0.94,1.76h-15.36l-26.15,44.67
				c-3.2,5.4-4.8,9.7-4.8,12.9c0,3.52,1.83,5.28,5.51,5.28c5.87,0,15.04-8.4,27.51-25.2c1.03-2.63,2.52-5.24,4.46-7.81
				c4.18-5.55,8.5-8.33,12.96-8.33c0.78,0,1.48,0.16,2.11,0.47l9.38-11.49c2.81-3.36,6.57-8.02,11.26-13.96
				c1.32-5.47,3.36-10.16,6.09-14.07c2.74-3.91,5.44-5.86,8.09-5.86c1.25,0,1.88,0.68,1.88,2.05c0,3.12-4.89,9.31-14.66,18.59
				c-0.47,2.42-0.7,4.53-0.7,6.33C893.07,363.21,895.14,370.4,899.29,380.25z"/>
			<path class="st0" d="M892,438l-1.35,1.26l-207.17-0.72l-143.51-0.49c-0.01-0.02-0.02-0.03-0.03-0.05H892z"/>
			<g>
				<path d="M635.48,170.14c-6.37-6.25-14.79-9.38-25.26-9.38c-13.37,0-27.21,4.46-41.51,13.37
					c-15.64-10.24-34.95-15.36-57.93-15.36c-30.26,0-57.87,9.13-82.85,27.38c-24.97,18.26-37.46,38.44-37.46,60.57
					c0,10.94,3.26,19.68,9.79,26.2c6.53,6.53,15.22,9.8,26.09,9.8c16.65,0,33.54-7.74,50.66-23.22
					c17.12-15.48,25.68-30.8,25.68-45.97c0-12.43-6.73-18.64-20.17-18.64c-14.07,0-27.79,5.78-41.16,17.34s-20.05,23.43-20.05,35.62
					c0,4.92,1.29,9.08,3.88,12.47c2.59,3.4,5.77,5.1,9.54,5.1c1.49,0,2.23-0.31,2.23-0.94c0-0.7-0.67-1.05-2-1.05
					c-2.52,0-4.72-1.02-6.6-3.05c-1.89-2.03-2.83-4.45-2.83-7.26c0-11.41,6.66-23.61,19.99-36.61
					C458.85,203.5,471.34,197,482.99,197c11.64,0,17.47,5.67,17.47,17c0,14.23-8.39,28.89-25.15,43.97
					c-16.77,15.09-33.01,22.63-48.73,22.63c-9.61,0-17.23-2.57-22.86-7.73c-5.63-5.16-8.44-12.12-8.44-20.88
					c0-17.27,10-35.68,30.01-55.23c24.4-23.84,53.08-35.76,86.07-35.76c23.61,0,41.51,5.2,53.71,15.59
					c-7.51,5.16-16.61,13.72-27.32,25.68c-10.71,11.97-20.02,23.89-27.91,35.77c-15.79,24.08-26.03,39.24-30.72,45.5
					c-4.3,5.78-9.5,11.45-15.6,17c-13.91,12.66-29.43,19-46.55,19c-9.7,0-17.73-2.16-24.1-6.45c-6.37-4.3-9.55-9.7-9.55-16.19
					c0-4.14,0.62-6.21,1.87-6.21c0.39,0,0.55,0.86,0.47,2.58c-0.16,4.22,1.8,6.33,5.86,6.33c2.35,0,4.32-0.94,5.93-2.81
					c1.6-1.88,2.4-4.15,2.4-6.8c0-5.32-2.39-7.98-7.15-7.98c-3.29,0-6.12,1.45-8.51,4.34c-2.38,2.89-3.57,6.33-3.57,10.32
					c0,7.19,3.48,13.19,10.43,18c6.96,4.81,15.68,7.21,26.15,7.21c12.82,0,27.4-3.99,43.74-11.96c13.84-6.88,24.59-14.58,32.25-23.1
					c7.66-8.52,16.1-22.44,25.33-41.74c15.24-31.9,31.34-54.18,48.31-66.84c6.57,7.19,9.85,15.36,9.85,24.5
					c0,10.64-3.18,19.78-9.55,27.44c-6.36,7.67-13.99,11.49-22.89,11.49c-4.92,0-9.8-1.38-14.65-4.15
					c-0.85-0.47-1.48-0.71-1.87-0.71c-0.47,0-0.78,0.23-0.94,0.71c0,1.49,2.42,3.09,7.27,4.78c4.84,1.69,9.37,2.54,13.59,2.54
					c10.77,0,20.19-3.71,28.23-11.14c8.04-7.43,12.07-16.14,12.07-26.15c0-11.88-5.87-22.51-17.59-31.89
					c13.75-8.52,27.12-12.78,40.1-12.78c9.61,0,17.35,2.98,23.22,8.96c5.86,5.97,8.79,13.88,8.79,23.71
					c0,6.33-1.04,12.22-3.11,17.69c-0.15,0.47-0.23,0.82-0.23,1.05c0,0.79,0.39,1.18,1.17,1.18c1.01,0,2.05-2.42,3.13-7.27
					c1.08-4.84,1.62-9.29,1.62-13.35C645.04,184.62,641.86,176.38,635.48,170.14z"/>
				<path d="M625.99,279.37c-0.2,0-0.53,0.21-1,0.62c-0.5,0.43-1.14,1.09-1.94,1.97c-7.21,10.12-13.86,15.18-19.97,15.18
					c-4.94,0-7.41-3.28-7.41-9.85c0-2.35,0.55-5.32,1.65-8.91l1.4-1.18c3.44-2.11,6.02-3.71,7.74-4.8
					c10.87-6.96,16.3-12.32,16.3-16.07c0-2.11-1.21-3.16-3.63-3.16c-3.52,0-7.49,2.34-11.9,7.03c-4.42,4.69-8.12,10.52-11.09,17.47
					c-3.67,2.98-7.54,6.8-11.6,11.5c6.4-9.93,9.61-17.91,9.61-23.93c0-8.05-3.13-12.07-9.4-12.07c-4.3,0-12.49,8.03-24.54,24.09
					l-2.12,2.93c-0.23,0.24-0.39,0.55-0.47,0.94c0,0.39,0.16,0.63,0.47,0.71c0.55,0,1.18-0.55,1.88-1.65
					c11.52-16.84,19.47-25.26,23.86-25.26c1.8,0,2.7,1.09,2.7,3.28c0,3.75-4.81,13.44-14.42,29.08l-19.24,31.19
					c4.46-0.31,6.84-0.47,7.16-0.47c0.7,0,3.12,0.16,7.27,0.47c7.58-12.98,12.91-21.58,16-25.8c3.09-4.22,7.1-8.48,12.02-12.78
					c-0.94,3.36-1.4,6.14-1.4,8.33c0,6.88,2.97,10.32,8.92,10.32c5.25,0,10.85-3.3,16.8-9.88c0.28-0.31,0.56-0.61,0.83-0.9
					c4.15-4.54,6.22-7.1,6.22-7.69C626.69,279.61,626.46,279.37,625.99,279.37z"/>
				<path d="M659.93,226.55c-2.65,0-5.2,1.19-7.62,3.57c-2.42,2.39-3.63,4.87-3.63,7.45c0,3.52,1.76,5.28,5.27,5.28
					c2.74,0,5.26-1.19,7.57-3.58c2.3-2.38,3.46-4.94,3.46-7.68C664.98,228.23,663.29,226.55,659.93,226.55z M665.97,279.37
					c-0.06,0-0.12,0.01-0.18,0.03c-0.33,0.1-0.66,0.49-0.99,1.15c-17.54,24.82-29.79,37.23-36.75,37.23c-3.68,0-5.52-1.76-5.52-5.28
					c0-3.44,1.91-8.33,5.74-14.66l26.62-43.74c-3.83,0.55-6.8,0.83-8.91,0.83c-1.41,0-3.32-0.28-5.75-0.83l-15.24,25.89l-3.05,5.19
					c-0.52,0.88-1.01,1.75-1.47,2.59c-4.41,7.93-6.62,13.95-6.62,18.05c0,3.91,1.23,7.17,3.7,9.79c2.46,2.62,5.53,3.93,9.21,3.93
					c7.75,0,18.98-10.22,33.7-30.66l5.04-6.92c0.08-0.11,0.15-0.22,0.23-0.32c0.56-0.83,0.88-1.36,0.95-1.56
					C666.68,279.61,666.44,279.37,665.97,279.37z"/>
				<path d="M796.6,279.37c-0.39,0-0.78,0.4-1.17,1.18l-2.12,2.58l-3.64,5.05c-14.09,19.73-24.19,29.6-30.29,29.6
					c-3.21,0-4.82-1.6-4.82-4.81c0-2.97,1.92-7.27,5.75-12.9c6.64-9.93,10.01-14.93,10.08-15.01c3.83-6.49,5.75-12.15,5.75-17
					c0-4.14-1.15-7.66-3.46-10.56c-2.31-2.89-5.14-4.33-8.5-4.33c-7.43,0-18.57,10.32-33.42,30.95c4.14-6.87,6.21-12.54,6.21-17
					c0-3.99-1.05-7.31-3.16-9.97c-2.11-2.65-4.81-3.98-8.09-3.98c-6.88,0-17.36,10.32-31.43,30.95c4.61-8.05,6.92-14.34,6.92-18.88
					c0-3.28-0.9-6.11-2.7-8.5c-1.8-2.38-3.96-3.57-6.46-3.57c-3.84,0-9.28,4.4-16.33,13.22c-5.15,6.48-8.46,10.81-9.93,13.01
					c-0.58,0.88-0.87,1.42-0.87,1.62c0,0.39,0.15,0.62,0.47,0.7c0.11,0,0.22-0.03,0.34-0.08c0.42-0.19,0.93-0.72,1.54-1.56
					c12.06-16.77,20.01-25.15,23.85-25.15c1.8,0,2.7,1.17,2.7,3.51c0,4.3-5.78,15.52-17.35,33.66l-16.77,26.38
					c2.27-0.31,4.92-0.47,7.97-0.47c2.82,0,5.12,0.16,6.92,0.47c9.62-17.67,19.31-32.67,29.08-45.03
					c9.77-12.35,16.81-18.52,21.11-18.52c2.89,0,4.34,1.75,4.34,5.27c0,3.91-5.44,14.54-16.3,31.9l-2.9,4.6l-3.63,5.75l-10.12,16.03
					c0.19-0.03,0.39-0.05,0.59-0.07c2.14-0.27,4.68-0.4,7.62-0.4c2.73,0,4.88,0.16,6.45,0.47c4.58-7.73,8.91-14.76,13-21.08
					c18.31-28.32,31.68-42.47,40.12-42.47c3.2,0,4.8,1.6,4.8,4.8c0,2.9-3.28,9.03-9.85,18.41c-5.16,7.43-8.01,11.61-8.56,12.55
					c-2.97,5.08-4.45,9.81-4.45,14.19c0,4.3,1.17,7.82,3.52,10.55c2.34,2.74,5.36,4.11,9.04,4.11c7.04,0,17.92-10.22,32.63-30.66
					l5.05-6.92c0.71-1.02,1.1-1.65,1.17-1.88C797.3,279.61,797.07,279.37,796.6,279.37z"/>
				<path d="M495.2,339.2c-4.07-3.98-9.44-5.98-16.12-5.98c-8.53,0-17.35,2.85-26.48,8.53c-9.97-6.53-22.29-9.8-36.95-9.8
					c-19.3,0-36.92,5.82-52.85,17.47c-15.93,11.64-23.9,24.52-23.9,38.63c0,6.99,2.08,12.56,6.25,16.72
					c4.16,4.16,9.71,6.25,16.64,6.25c10.62,0,21.39-4.94,32.31-14.81c10.93-9.88,16.39-19.65,16.39-29.33
					c0-7.93-4.29-11.89-12.87-11.89c-8.98,0-17.73,3.69-26.25,11.06c-8.53,7.38-12.8,14.95-12.8,22.72c0,3.14,0.83,5.79,2.48,7.96
					c1.65,2.17,3.68,3.25,6.08,3.25c0.95,0,1.43-0.2,1.43-0.6c0-0.44-0.43-0.67-1.28-0.67c-1.6,0-3.01-0.64-4.21-1.94
					c-1.2-1.3-1.8-2.84-1.8-4.64c0-7.27,4.25-15.05,12.75-23.35s16.47-12.44,23.9-12.44s11.15,3.61,11.15,10.84
					c0,9.08-5.35,18.43-16.05,28.05c-10.7,9.63-21.06,14.44-31.08,14.44c-6.13,0-11-1.65-14.59-4.94
					c-3.59-3.29-5.38-7.73-5.38-13.31c0-11.02,6.38-22.77,19.15-35.23c15.56-15.21,33.86-22.82,54.9-22.82
					c15.06,0,26.48,3.32,34.26,9.95c-4.79,3.29-10.6,8.75-17.43,16.38c-6.83,7.63-12.76,15.24-17.8,22.82
					c-10.07,15.36-16.61,25.03-19.6,29.02c-2.74,3.69-6.06,7.31-9.95,10.85c-8.87,8.08-18.77,12.11-29.69,12.11
					c-6.19,0-11.31-1.37-15.38-4.11c-4.06-2.74-6.09-6.18-6.09-10.32c0-2.65,0.4-3.97,1.2-3.97c0.24,0,0.34,0.55,0.29,1.65
					c-0.1,2.69,1.15,4.04,3.74,4.04c1.5,0,2.76-0.6,3.78-1.8c1.02-1.19,1.54-2.64,1.54-4.34c0-3.39-1.53-5.08-4.57-5.08
					c-2.09,0-3.9,0.92-5.42,2.77c-1.52,1.84-2.28,4.03-2.28,6.58c0,4.59,2.22,8.41,6.66,11.48c4.43,3.07,9.99,4.6,16.68,4.6
					c8.17,0,17.47-2.54,27.9-7.63c8.82-4.39,15.68-9.3,20.57-14.74c4.88-5.43,10.27-14.31,16.15-26.62
					c9.73-20.35,20-34.56,30.82-42.64c4.19,4.59,6.29,9.8,6.29,15.63c0,6.78-2.03,12.62-6.09,17.51c-4.06,4.88-8.93,7.33-14.61,7.33
					c-3.14,0-6.25-0.89-9.34-2.65c-0.55-0.31-0.95-0.46-1.19-0.46c-0.3,0-0.5,0.15-0.6,0.45c0,0.96,1.54,1.98,4.63,3.06
					c3.09,1.08,5.98,1.62,8.67,1.62c6.87,0,12.88-2.37,18.01-7.11s7.7-10.3,7.7-16.68c0-7.58-3.74-14.36-11.22-20.35
					c8.77-5.43,17.3-8.15,25.58-8.15c6.13,0,11.07,1.91,14.81,5.72c3.74,3.81,5.61,8.85,5.61,15.13c0,4.03-0.66,7.79-1.98,11.28
					c-0.1,0.3-0.15,0.52-0.15,0.67c0,0.14,0.02,0.27,0.07,0.37c0.1,0.25,0.32,0.38,0.68,0.38c0.54,0,1.1-1.11,1.68-3.32
					c0.1-0.4,0.21-0.84,0.31-1.31c0.69-3.09,1.04-5.93,1.04-8.52C501.3,348.44,499.26,343.19,495.2,339.2z"/>
				<path d="M558.99,375.55c-0.4,0-1.38,0.87-2.94,2.59c-3.25,4.56-6.38,8.09-9.4,10.58c-3.69,3.07-7.21,4.6-10.57,4.6
					c-4.94,0-7.41-3.28-7.41-9.85c0-2.35,0.55-5.32,1.65-8.91l1.4-1.18c3.44-2.11,6.02-3.71,7.74-4.8
					c10.87-6.96,16.3-12.31,16.3-16.07c0-2.11-1.21-3.16-3.63-3.16c-3.52,0-7.49,2.34-11.9,7.03c-4.42,4.69-8.12,10.52-11.09,17.47
					c-3.67,2.98-7.54,6.81-11.6,11.5c6.4-9.93,9.61-17.9,9.61-23.93c0-8.05-3.13-12.07-9.4-12.07c-3.44,0-9.38,5.15-17.8,15.45
					c-0.76,0.94-1.55,1.92-2.36,2.94c-1.4,1.77-2.86,3.67-4.38,5.7l-2.12,2.93c-0.23,0.24-0.39,0.55-0.47,0.94
					c0,0.4,0.16,0.63,0.47,0.71c0.55,0,1.18-0.55,1.88-1.65c11.52-16.84,19.47-25.26,23.86-25.26c1.8,0,2.7,1.09,2.7,3.28
					c0,3.75-4.81,13.45-14.42,29.08l-19.24,31.19c4.46-0.31,6.84-0.47,7.16-0.47c0.7,0,3.12,0.16,7.27,0.47
					c7.58-12.97,12.91-21.58,16-25.8c3.09-4.22,7.1-8.48,12.02-12.78c-0.94,3.36-1.4,6.14-1.4,8.33c0,6.88,2.97,10.32,8.92,10.32
					c3.29,0,6.72-1.3,10.29-3.88c2.12-1.55,4.29-3.54,6.51-6c4.7-5.1,7.05-7.96,7.05-8.59
					C559.69,375.79,559.46,375.55,558.99,375.55z"/>
				<path d="M628.5,374.84c-0.42,0-1.08,0.6-2,1.8c-3.17,5.04-7.26,9.34-12.26,12.93c-1.66,1.19-3.25,2.18-4.77,2.97
					c-3.07,1.61-5.85,2.41-8.35,2.41c-2.08,0-3.95-0.51-5.61-1.54c10.06-13.88,15.09-25.74,15.09-35.59
					c0-7.88-3.58-11.82-10.73-11.82c-7.65,0-17.38,4.33-29.19,12.98c-13.2,9.63-21.21,19.54-24.03,29.74
					c-0.2,0.71-0.37,1.42-0.52,2.13c-0.43,2.08-0.64,4.18-0.64,6.28c0,5.91,1.76,10.99,5.3,15.23c3.54,4.24,7.8,6.36,12.8,6.36
					c9.65,0,19.97-8.01,30.96-24.03c1.99,1.03,4.28,1.54,6.86,1.54c2.46,0,5.01-0.6,7.65-1.8c3.98-1.79,8.17-4.95,12.57-9.47
					c4.91-5.04,7.37-8.24,7.37-9.6C629,375.02,628.83,374.84,628.5,374.84z M594.51,372.21c-3.24,4.45-4.87,8.78-4.87,12.97
					c0,2.92,1.21,5.74,3.62,8.48c-10.64,15.25-20.46,22.87-29.44,22.87c-5.49,0-8.23-2.95-8.23-8.86c0-10.19,5.45-22.74,16.34-37.65
					c10.89-14.9,20.12-22.35,27.69-22.35c6.07,0,9.11,3.47,9.11,10.41c0,3.68-0.67,7.02-2,10.02c-0.5-1.71-1.41-2.57-2.74-2.57
					C600.91,365.53,597.75,367.76,594.51,372.21z"/>
				<path d="M699.96,378.55c-0.4,0-0.83,0.4-1.29,1.18c-4.83,7.02-9.26,13.05-13.3,18.09c-10.22,12.76-17.88,19.14-22.99,19.14
					c-3.21,0-4.81-1.76-4.81-5.28c0-3.44,3.87-11.76,11.61-24.98c7.66-12.97,26.15-42.76,55.46-89.35
					c-0.28,0.02-0.55,0.04-0.81,0.05c-3.72,0.28-5.87,0.42-6.46,0.42c-2.45,0-4.93-0.37-7.45-1.12c-0.06-0.02-0.11-0.03-0.17-0.05
					l-3.46,5.8l-9.53,15.96l-28.87,48.36c1.32-2.73,1.99-5.2,1.99-7.39c0-4.69-2.42-7.03-7.27-7.03c-7.27,0-17.28,4.18-30.02,12.54
					c-12.9,8.43-20.61,17.65-23.12,27.65c-0.16,0.63-0.3,1.26-0.41,1.89c-0.34,1.82-0.51,3.66-0.51,5.53
					c0,5.39,1.41,9.87,4.22,13.42c2.82,3.56,6.3,5.34,10.44,5.34c6.64,0,16.81-9.7,30.49-29.08c-2.82,5.55-4.22,10.43-4.22,14.65
					c0,4.22,1.13,7.68,3.4,10.38s5.2,4.05,8.81,4.05c5.37,0,13-5.95,22.89-17.85c3.07-3.7,6.35-7.96,9.86-12.8l5.05-6.93
					c0.7-1.02,1.09-1.65,1.17-1.88C700.66,378.79,700.43,378.55,699.96,378.55z M623.68,416.96c-4.3,0-6.45-2.62-6.45-7.86
					c0-8.6,5.76-19.91,17.3-33.95c11.53-14.03,20.81-21.04,27.85-21.04c3.82,0,5.74,2.07,5.74,6.21c0,4.3-4.07,12.31-12.19,24.04
					C640.68,406.09,629.93,416.96,623.68,416.96z"/>
				<path d="M771.36,378.55c-0.4,0-0.79,0.4-1.18,1.18l-2.11,2.58l-3.64,5.05c-1.82,2.55-3.58,4.93-5.27,7.15
					c-11.38,14.97-19.81,22.45-25.26,22.45c-3.21,0-4.82-1.68-4.82-5.04c0-4.15,4.46-13.49,13.37-28.03l18.76-30.6
					c-3.59,0.54-6.37,0.82-8.32,0.82c-1.64,0-3.68-0.28-6.1-0.82l-11.49,19.46c-17.43,29.47-30.1,44.21-37.99,44.21
					c-2.98,0-4.46-1.76-4.46-5.28c0-3.59,1.41-7.74,4.22-12.43l27.91-45.96c-3.83,0.54-6.49,0.82-7.97,0.82
					c-1.49,0-3.56-0.28-6.22-0.82l-21.34,35.88c-1.84,3.07-3.2,5.95-4.08,8.65c-0.34,1.04-0.6,2.06-0.79,3.05
					c-0.28,1.35-0.41,2.65-0.41,3.89c0,3.91,1.17,7.21,3.52,9.91s5.24,4.05,8.68,4.05c3.28,0,6.76-1.76,10.43-5.28
					c3.36-3.13,8.64-9.3,15.83-18.53l2.35-3.16c-3.05,5.47-4.57,9.73-4.57,12.78c0,3.91,1.19,7.25,3.58,10.02
					c2.38,2.78,5.3,4.17,8.74,4.17c5.48,0,12.92-5.56,22.31-16.68c1.4-1.65,2.71-3.21,3.93-4.68c8.72-10.49,13.09-16.52,13.09-18.1
					C772.06,378.79,771.82,378.55,771.36,378.55z"/>
				<path d="M825.75,378.55c-0.47,0-1.21,0.63-2.23,1.88c-2.88,3.79-5.66,7.28-8.35,10.48c-14.58,17.37-26.43,26.05-35.55,26.05
					c-6.89,0-10.33-3.68-10.33-11.02c0-8.76,4.73-19.59,14.19-32.49c9.46-12.9,17.43-19.34,23.92-19.34c3.83,0,5.75,1.76,5.75,5.27
					c0,4.46-2.78,8.06-8.33,10.79c-7.19,3.52-10.79,7.35-10.79,11.49c0,3.52,1.76,5.28,5.28,5.28c3.59,0,7.21-2.7,10.85-8.09
					c3.63-5.4,5.45-10.79,5.45-16.18c0-6.88-2.89-10.32-8.68-10.32c-4.77,0-10.94,2.19-18.53,6.56
					c-8.99,5.09-16.14,11.14-21.45,18.18c-4.52,5.97-7.12,11.79-7.79,17.42c-0.12,0.96-0.18,1.91-0.19,2.85v0.13
					c0,5.79,1.96,10.77,5.87,14.95c3.91,4.18,8.61,6.28,14.08,6.28c8.46,0,18.7-6.58,30.75-19.73c1.22-1.34,2.36-2.61,3.44-3.81
					c8.74-9.71,13.11-15.01,13.11-15.92C826.22,378.87,826.06,378.63,825.75,378.55z"/>
				<path d="M850.13,355.11h15.36l0.94-1.76h-15.36l13.48-22.75c-2.34,0.62-4.61,0.94-6.8,0.94c-2.11,0-4.33-0.32-6.68-0.94
					l-13.72,22.75h-11.73l-1.17,1.76h11.96l-19.7,33.06c-0.55,0.93-1.06,1.85-1.54,2.74c-0.79,1.48-1.48,2.9-2.06,4.27
					c-1.74,4.02-2.61,7.54-2.61,10.58c0,3.99,1.23,7.31,3.7,9.97c2.46,2.66,5.53,3.99,9.21,3.99c6.46,0,15.65-7.7,27.59-23.1
					c1.81-2.34,3.69-4.86,5.63-7.55l5.05-6.93c0.71-1.02,1.1-1.65,1.18-1.88c0-0.47-0.24-0.71-0.71-0.71c-0.39,0-0.86,0.4-1.41,1.18
					c-3,4.4-5.84,8.41-8.54,12.03c-12.47,16.8-21.64,25.2-27.51,25.2c-3.68,0-5.51-1.76-5.51-5.28c0-3.2,1.6-7.5,4.8-12.9
					L850.13,355.11z"/>
				<path d="M893.07,358.68c0-1.8,0.23-3.91,0.7-6.33c9.77-9.28,14.66-15.47,14.66-18.59c0-1.37-0.63-2.05-1.88-2.05
					c-2.65,0-5.35,1.95-8.09,5.86c-2.73,3.91-4.77,8.6-6.09,14.07c-4.69,5.94-8.45,10.6-11.26,13.96l-9.38,11.49
					c-0.63-0.31-1.33-0.47-2.11-0.47c-4.46,0-8.78,2.78-12.96,8.33c-1.94,2.57-3.43,5.18-4.46,7.81c-0.51,1.28-0.9,2.56-1.2,3.86
					c-0.41,1.8-0.61,3.62-0.61,5.45c0,5.08,1.58,9.12,4.74,12.13c3.17,3.01,7.41,4.52,12.73,4.52c9.38,0,17.49-2.58,24.33-7.74
					c6.84-5.16,10.26-11.26,10.26-18.3c0-3.36-1.06-7.5-3.16-12.43C895.14,370.4,893.07,363.21,893.07,358.68z M891.9,373.04
					c0.15,2.31,0.23,4.64,0.23,6.98c0,8.76-2.95,16.94-8.85,24.57c-5.9,7.62-12.14,11.43-18.7,11.43c-3.37,0-6.18-1.06-8.45-3.17
					s-3.4-4.73-3.4-7.85c0-2.89,1.12-5.65,3.34-8.27c2.23-2.62,4.87-4.28,7.92-4.98c7.58-1.64,11.37-4.77,11.37-9.38
					c0-1.8-0.74-3.33-2.23-4.58c8.29-10.08,14.62-17.9,19-23.45c-0.31,2.35-0.47,5.28-0.47,8.79
					C891.66,367.44,891.74,370.74,891.9,373.04z"/>
			</g>
			<path class="st0" d="M683.81,438c-0.1,0.18-0.22,0.36-0.33,0.54l-143.51-0.49L526.11,438H683.81z"/>
		</g>
		<path class="st0" d="M892,438c-0.01,0.04-0.01,0.07-0.02,0.11c-0.23,0.38-0.46,0.77-0.7,1.15h-0.63l-207.17-0.72l-143.51-0.49
			L526.11,438H892z"/>
	</g>
</g>
<g id="Layer_2" class="st1">
</g>
</svg>
