<?xml version="1.0" encoding="UTF-8" standalone="no"?>
<svg
   xmlns:dc="http://purl.org/dc/elements/1.1/"
   xmlns:cc="http://creativecommons.org/ns#"
   xmlns:rdf="http://www.w3.org/1999/02/22-rdf-syntax-ns#"
   xmlns:svg="http://www.w3.org/2000/svg"
   xmlns="http://www.w3.org/2000/svg"
   xmlns:sodipodi="http://sodipodi.sourceforge.net/DTD/sodipodi-0.dtd"
   xmlns:inkscape="http://www.inkscape.org/namespaces/inkscape"
   version="1.1"
   x="0px"
   y="0px"
   viewBox="0 0 1296 864"
   style="enable-background:new 0 0 1296 864;"
   xml:space="preserve"
   id="svg58"
   sodipodi:docname="Makeup  logo (1).svg"
   inkscape:version="1.0.1 (3bc2e813f5, 2020-09-07)"><metadata
   id="metadata64"><rdf:RDF><cc:Work
       rdf:about=""><dc:format>image/svg+xml</dc:format><dc:type
         rdf:resource="http://purl.org/dc/dcmitype/StillImage" /><dc:title></dc:title></cc:Work></rdf:RDF></metadata><defs
   id="defs62" /><sodipodi:namedview
   pagecolor="#ffffff"
   bordercolor="#666666"
   borderopacity="1"
   objecttolerance="10"
   gridtolerance="10"
   guidetolerance="10"
   inkscape:pageopacity="0"
   inkscape:pageshadow="2"
   inkscape:window-width="1920"
   inkscape:window-height="1051"
   id="namedview60"
   showgrid="false"
   inkscape:zoom="0.85069444"
   inkscape:cx="648"
   inkscape:cy="432"
   inkscape:window-x="-9"
   inkscape:window-y="-9"
   inkscape:window-maximized="1"
   inkscape:current-layer="svg58" />
<style
   type="text/css"
   id="style2">
	.st0{fill:#FF00F3;}
	.st1{display:none;}
</style>
<g
   id="Layer_1"
   transform="matrix(2.0155039,0,0,2.0155039,-292.97286,-59.914728)">
	<g
   id="g54">
		<circle
   cx="611"
   cy="381.5"
   r="322.5"
   id="circle4" />
		<path
   class="st0"
   d="m 892,438 -1.35,1.26 -207.17,-0.72 c 0.11,-0.18 0.23,-0.36 0.33,-0.54 z"
   id="path6" />
		<g
   id="g50">
			<path
   class="st0"
   d="m 683.81,438 c -0.1,0.18 -0.22,0.36 -0.33,0.54 L 539.97,438.05 526.11,438 Z"
   id="path8" />
			<path
   class="st0"
   d="m 716,125 c -37.02,0 -71.77,9.77 -101.79,26.87 C 583.42,133.53 547.44,123 509,123 c -113.77,0 -206,92.23 -206,206 0,39.75 11.27,76.86 30.77,108.34 0,0 248.61,244.36 292.92,266.51 0,0 258.75,-232.35 265.29,-265.74 -0.23,0.38 -0.46,0.77 -0.7,1.15 h -0.63 L 683.48,438.54 539.97,438.05 526.11,438 H 892 c -0.01,0.04 -0.01,0.07 -0.02,0.11 C 911.02,406.9 922,370.24 922,331 922,217.23 829.77,125 716,125 Z m -63.69,105.12 c 2.42,-2.38 4.97,-3.57 7.62,-3.57 3.36,0 5.05,1.68 5.05,5.04 0,2.74 -1.16,5.3 -3.46,7.68 -2.31,2.39 -4.83,3.58 -7.57,3.58 -3.51,0 -5.27,-1.76 -5.27,-5.28 0,-2.58 1.21,-5.06 3.63,-7.45 z m -268.12,56.23 c 2.39,-2.89 5.22,-4.34 8.51,-4.34 4.76,0 7.15,2.66 7.15,7.98 0,2.65 -0.8,4.92 -2.4,6.8 -1.61,1.87 -3.58,2.81 -5.93,2.81 -4.06,0 -6.02,-2.11 -5.86,-6.33 0.08,-1.72 -0.08,-2.58 -0.47,-2.58 -1.25,0 -1.87,2.07 -1.87,6.21 0,6.49 3.18,11.89 9.55,16.19 6.37,4.29 14.4,6.45 24.1,6.45 17.12,0 32.64,-6.34 46.55,-19 6.1,-5.55 11.3,-11.22 15.6,-17 4.69,-6.26 14.93,-21.42 30.72,-45.5 7.89,-11.88 17.2,-23.8 27.91,-35.77 10.71,-11.96 19.81,-20.52 27.32,-25.68 C 552.87,166.2 534.97,161 511.36,161 c -32.99,0 -61.67,11.92 -86.07,35.76 -20.01,19.55 -30.01,37.96 -30.01,55.23 0,8.76 2.81,15.72 8.44,20.88 5.63,5.16 13.25,7.73 22.86,7.73 15.72,0 31.96,-7.54 48.73,-22.63 16.76,-15.08 25.15,-29.74 25.15,-43.97 0,-11.33 -5.83,-17 -17.47,-17 -11.65,0 -24.14,6.5 -37.47,19.51 -13.33,13 -19.99,25.2 -19.99,36.61 0,2.81 0.94,5.23 2.83,7.26 1.88,2.03 4.08,3.05 6.6,3.05 1.33,0 2,0.35 2,1.05 0,0.63 -0.74,0.94 -2.23,0.94 -3.77,0 -6.95,-1.7 -9.54,-5.1 -2.59,-3.39 -3.88,-7.55 -3.88,-12.47 0,-12.19 6.68,-24.06 20.05,-35.62 13.37,-11.56 27.09,-17.34 41.16,-17.34 13.44,0 20.17,6.21 20.17,18.64 0,15.17 -8.56,30.49 -25.68,45.97 -17.12,15.48 -34.01,23.22 -50.66,23.22 -10.87,0 -19.56,-3.27 -26.09,-9.8 -6.53,-6.52 -9.79,-15.26 -9.79,-26.2 0,-22.13 12.49,-42.31 37.46,-60.57 24.98,-18.25 52.59,-27.38 82.85,-27.38 22.98,0 42.29,5.12 57.93,15.36 14.3,-8.91 28.14,-13.37 41.51,-13.37 10.47,0 18.89,3.13 25.26,9.38 6.38,6.24 9.56,14.48 9.56,24.71 0,4.06 -0.54,8.51 -1.62,13.35 -1.08,4.85 -2.12,7.27 -3.13,7.27 -0.78,0 -1.17,-0.39 -1.17,-1.18 0,-0.23 0.08,-0.58 0.23,-1.05 2.07,-5.47 3.11,-11.36 3.11,-17.69 0,-9.83 -2.93,-17.74 -8.79,-23.71 -5.87,-5.98 -13.61,-8.96 -23.22,-8.96 -12.98,0 -26.35,4.26 -40.1,12.78 11.72,9.38 17.59,20.01 17.59,31.89 0,10.01 -4.03,18.72 -12.07,26.15 -8.04,7.43 -17.46,11.14 -28.23,11.14 -4.22,0 -8.75,-0.85 -13.59,-2.54 -4.85,-1.69 -7.27,-3.29 -7.27,-4.78 0.16,-0.48 0.47,-0.71 0.94,-0.71 0.39,0 1.02,0.24 1.87,0.71 4.85,2.77 9.73,4.15 14.65,4.15 8.9,0 16.53,-3.82 22.89,-11.49 6.37,-7.66 9.55,-16.8 9.55,-27.44 0,-9.14 -3.28,-17.31 -9.85,-24.5 -16.97,12.66 -33.07,34.94 -48.31,66.84 -9.23,19.3 -17.67,33.22 -25.33,41.74 -7.66,8.52 -18.41,16.22 -32.25,23.1 -16.34,7.97 -30.92,11.96 -43.74,11.96 -10.47,0 -19.19,-2.4 -26.15,-7.21 -6.95,-4.81 -10.43,-10.81 -10.43,-18 0,-3.99 1.19,-7.43 3.57,-10.32 z m 508,124.63 c -6.84,5.16 -14.95,7.74 -24.33,7.74 -5.32,0 -9.56,-1.51 -12.73,-4.52 -3.16,-3.01 -4.74,-7.05 -4.74,-12.13 0,-1.83 0.2,-3.65 0.61,-5.45 -11.94,15.4 -21.13,23.1 -27.59,23.1 -3.68,0 -6.75,-1.33 -9.21,-3.99 -2.47,-2.66 -3.7,-5.98 -3.7,-9.97 0,-3.04 0.87,-6.56 2.61,-10.58 -1.08,1.2 -2.22,2.47 -3.44,3.81 -12.05,13.15 -22.29,19.73 -30.75,19.73 -5.47,0 -10.17,-2.1 -14.08,-6.28 -3.91,-4.18 -5.87,-9.16 -5.87,-14.95 v -0.13 c -1.22,1.47 -2.53,3.03 -3.93,4.68 -9.39,11.12 -16.83,16.68 -22.31,16.68 -3.44,0 -6.36,-1.39 -8.74,-4.17 -2.39,-2.77 -3.58,-6.11 -3.58,-10.02 0,-3.05 1.52,-7.31 4.57,-12.78 l -2.35,3.16 c -7.19,9.23 -12.47,15.4 -15.83,18.53 -3.67,3.52 -7.15,5.28 -10.43,5.28 -3.44,0 -6.33,-1.35 -8.68,-4.05 -2.35,-2.7 -3.52,-6 -3.52,-9.91 0,-1.24 0.13,-2.54 0.41,-3.89 -9.89,11.9 -17.52,17.85 -22.89,17.85 -3.61,0 -6.54,-1.35 -8.81,-4.05 -2.27,-2.7 -3.4,-6.16 -3.4,-10.38 0,-4.22 1.4,-9.1 4.22,-14.65 -13.68,19.38 -23.85,29.08 -30.49,29.08 -4.14,0 -7.62,-1.78 -10.44,-5.34 -2.81,-3.55 -4.22,-8.03 -4.22,-13.42 0,-1.87 0.17,-3.71 0.51,-5.53 -2.64,1.2 -5.19,1.8 -7.65,1.8 -2.58,0 -4.87,-0.51 -6.86,-1.54 -10.99,16.02 -21.31,24.03 -30.96,24.03 -5,0 -9.26,-2.12 -12.8,-6.36 -3.54,-4.24 -5.3,-9.32 -5.3,-15.23 0,-2.1 0.21,-4.2 0.64,-6.28 -3.57,2.58 -7,3.88 -10.29,3.88 -5.95,0 -8.92,-3.44 -8.92,-10.32 0,-2.19 0.46,-4.97 1.4,-8.33 -4.92,4.3 -8.93,8.56 -12.02,12.78 -3.09,4.22 -8.42,12.83 -16,25.8 -4.15,-0.31 -6.57,-0.47 -7.27,-0.47 -0.32,0 -2.7,0.16 -7.16,0.47 l 19.24,-31.19 c 9.61,-15.63 14.42,-25.33 14.42,-29.08 0,-2.19 -0.9,-3.28 -2.7,-3.28 -4.39,0 -12.34,8.42 -23.86,25.26 -0.7,1.1 -1.33,1.65 -1.88,1.65 -0.31,-0.08 -0.47,-0.31 -0.47,-0.71 0.08,-0.39 0.24,-0.7 0.47,-0.94 l 2.12,-2.93 c 1.52,-2.03 2.98,-3.93 4.38,-5.7 -0.05,-0.1 -0.07,-0.23 -0.07,-0.37 0,-0.15 0.05,-0.37 0.15,-0.67 1.32,-3.49 1.98,-7.25 1.98,-11.28 0,-6.28 -1.87,-11.32 -5.61,-15.13 -3.74,-3.81 -8.68,-5.72 -14.81,-5.72 -8.28,0 -16.81,2.72 -25.58,8.15 7.48,5.99 11.22,12.77 11.22,20.35 0,6.38 -2.57,11.94 -7.7,16.68 -5.13,4.74 -11.14,7.11 -18.01,7.11 -2.69,0 -5.58,-0.54 -8.67,-1.62 -3.09,-1.08 -4.63,-2.1 -4.63,-3.06 0.1,-0.3 0.3,-0.45 0.6,-0.45 0.24,0 0.64,0.15 1.19,0.46 3.09,1.76 6.2,2.65 9.34,2.65 5.68,0 10.55,-2.45 14.61,-7.33 4.06,-4.89 6.09,-10.73 6.09,-17.51 0,-5.83 -2.1,-11.04 -6.29,-15.63 -10.82,8.08 -21.09,22.29 -30.82,42.64 -5.88,12.31 -11.27,21.19 -16.15,26.62 -4.89,5.44 -11.75,10.35 -20.57,14.74 -10.43,5.09 -19.73,7.63 -27.9,7.63 -6.69,0 -12.25,-1.53 -16.68,-4.6 -4.44,-3.07 -6.66,-6.89 -6.66,-11.48 0,-2.55 0.76,-4.74 2.28,-6.58 1.52,-1.85 3.33,-2.77 5.42,-2.77 3.04,0 4.57,1.69 4.57,5.08 0,1.7 -0.52,3.15 -1.54,4.34 -1.02,1.2 -2.28,1.8 -3.78,1.8 -2.59,0 -3.84,-1.35 -3.74,-4.04 0.05,-1.1 -0.05,-1.65 -0.29,-1.65 -0.8,0 -1.2,1.32 -1.2,3.97 0,4.14 2.03,7.58 6.09,10.32 4.07,2.74 9.19,4.11 15.38,4.11 10.92,0 20.82,-4.03 29.69,-12.11 3.89,-3.54 7.21,-7.16 9.95,-10.85 2.99,-3.99 9.53,-13.66 19.6,-29.02 5.04,-7.58 10.97,-15.19 17.8,-22.82 6.83,-7.63 12.64,-13.09 17.43,-16.38 -7.78,-6.63 -19.2,-9.95 -34.26,-9.95 -21.04,0 -39.34,7.61 -54.9,22.82 -12.77,12.46 -19.15,24.21 -19.15,35.23 0,5.58 1.79,10.02 5.38,13.31 3.59,3.29 8.46,4.94 14.59,4.94 10.02,0 20.38,-4.81 31.08,-14.44 10.7,-9.62 16.05,-18.97 16.05,-28.05 0,-7.23 -3.72,-10.84 -11.15,-10.84 -7.43,0 -15.4,4.14 -23.9,12.44 -8.5,8.3 -12.75,16.08 -12.75,23.35 0,1.8 0.6,3.34 1.8,4.64 1.2,1.3 2.61,1.94 4.21,1.94 0.85,0 1.28,0.23 1.28,0.67 0,0.4 -0.48,0.6 -1.43,0.6 -2.4,0 -4.43,-1.08 -6.08,-3.25 -1.65,-2.17 -2.48,-4.82 -2.48,-7.96 0,-7.77 4.27,-15.34 12.8,-22.72 8.52,-7.37 17.27,-11.06 26.25,-11.06 8.58,0 12.87,3.96 12.87,11.89 0,9.68 -5.46,19.45 -16.39,29.33 -10.92,9.87 -21.69,14.81 -32.31,14.81 -6.93,0 -12.48,-2.09 -16.64,-6.25 -4.17,-4.16 -6.25,-9.73 -6.25,-16.72 0,-14.11 7.97,-26.99 23.9,-38.63 15.93,-11.65 33.55,-17.47 52.85,-17.47 14.66,0 26.98,3.27 36.95,9.8 9.13,-5.68 17.95,-8.53 26.48,-8.53 6.68,0 12.05,2 16.12,5.98 4.06,3.99 6.1,9.24 6.1,15.77 0,2.59 -0.35,5.43 -1.04,8.52 -0.1,0.47 -0.21,0.91 -0.31,1.31 8.42,-10.3 14.36,-15.45 17.8,-15.45 6.27,0 9.4,4.02 9.4,12.07 0,6.03 -3.21,14 -9.61,23.93 4.06,-4.69 7.93,-8.52 11.6,-11.5 2.97,-6.95 6.67,-12.78 11.09,-17.47 4.41,-4.69 8.38,-7.03 11.9,-7.03 2.42,0 3.63,1.05 3.63,3.16 0,3.76 -5.43,9.11 -16.3,16.07 -1.72,1.09 -4.3,2.69 -7.74,4.8 l -1.4,1.18 c -1.1,3.59 -1.65,6.56 -1.65,8.91 0,6.57 2.47,9.85 7.41,9.85 3.36,0 6.88,-1.53 10.57,-4.6 2.82,-10.2 10.83,-20.11 24.03,-29.74 11.81,-8.65 21.54,-12.98 29.19,-12.98 7.15,0 10.73,3.94 10.73,11.82 0,9.85 -5.03,21.71 -15.09,35.59 1.66,1.03 3.53,1.54 5.61,1.54 2.5,0 5.28,-0.8 8.35,-2.41 2.51,-10 10.22,-19.22 23.12,-27.65 12.74,-8.36 22.75,-12.54 30.02,-12.54 4.85,0 7.27,2.34 7.27,7.03 0,2.19 -0.67,4.66 -1.99,7.39 l 28.87,-48.36 c -0.2,0.02 -0.4,0.04 -0.59,0.07 l 10.12,-16.03 3.46,-5.8 c 0.06,0.02 0.11,0.03 0.17,0.05 l 2.9,-4.6 c 10.86,-17.36 16.3,-27.99 16.3,-31.9 0,-3.52 -1.45,-5.27 -4.34,-5.27 -4.3,0 -11.34,6.17 -21.11,18.52 -9.77,12.36 -19.46,27.36 -29.08,45.03 -1.8,-0.31 -4.1,-0.47 -6.92,-0.47 -3.05,0 -5.7,0.16 -7.97,0.47 l 16.77,-26.38 c 11.57,-18.14 17.35,-29.36 17.35,-33.66 0,-2.34 -0.9,-3.51 -2.7,-3.51 -3.84,0 -11.79,8.38 -23.85,25.15 -0.61,0.84 -1.12,1.37 -1.54,1.56 -0.08,0.1 -0.15,0.21 -0.23,0.32 l -5.04,6.92 c -14.72,20.44 -25.95,30.66 -33.7,30.66 -3.68,0 -6.75,-1.31 -9.21,-3.93 -2.47,-2.62 -3.7,-5.88 -3.7,-9.79 0,-4.1 2.21,-10.12 6.62,-18.05 -0.27,0.29 -0.55,0.59 -0.83,0.9 -5.95,6.58 -11.55,9.88 -16.8,9.88 -5.95,0 -8.92,-3.44 -8.92,-10.32 0,-2.19 0.46,-4.97 1.4,-8.33 -4.92,4.3 -8.93,8.56 -12.02,12.78 -3.09,4.22 -8.42,12.82 -16,25.8 -4.15,-0.31 -6.57,-0.47 -7.27,-0.47 -0.32,0 -2.7,0.16 -7.16,0.47 l 19.24,-31.19 c 9.61,-15.64 14.42,-25.33 14.42,-29.08 0,-2.19 -0.9,-3.28 -2.7,-3.28 -4.39,0 -12.34,8.42 -23.86,25.26 -0.7,1.1 -1.33,1.65 -1.88,1.65 -0.31,-0.08 -0.47,-0.32 -0.47,-0.71 0.08,-0.39 0.24,-0.7 0.47,-0.94 l 2.12,-2.93 c 12.05,-16.06 20.24,-24.09 24.54,-24.09 6.27,0 9.4,4.02 9.4,12.07 0,6.02 -3.21,14 -9.61,23.93 4.06,-4.7 7.93,-8.52 11.6,-11.5 2.97,-6.95 6.67,-12.78 11.09,-17.47 4.41,-4.69 8.38,-7.03 11.9,-7.03 2.42,0 3.63,1.05 3.63,3.16 0,3.75 -5.43,9.11 -16.3,16.07 -1.72,1.09 -4.3,2.69 -7.74,4.8 l -1.4,1.18 c -1.1,3.59 -1.65,6.56 -1.65,8.91 0,6.57 2.47,9.85 7.41,9.85 6.11,0 12.76,-5.06 19.97,-15.18 0.8,-0.88 1.44,-1.54 1.94,-1.97 l 15.24,-25.89 c 2.43,0.55 4.34,0.83 5.75,0.83 2.11,0 5.08,-0.28 8.91,-0.83 l -26.62,43.74 c -3.83,6.33 -5.74,11.22 -5.74,14.66 0,3.52 1.84,5.28 5.52,5.28 6.96,0 19.21,-12.41 36.75,-37.23 0.33,-0.66 0.66,-1.05 0.99,-1.15 1.47,-2.2 4.78,-6.53 9.93,-13.01 7.05,-8.82 12.49,-13.22 16.33,-13.22 2.5,0 4.66,1.19 6.46,3.57 1.8,2.39 2.7,5.22 2.7,8.5 0,4.54 -2.31,10.83 -6.92,18.88 14.07,-20.63 24.55,-30.95 31.43,-30.95 3.28,0 5.98,1.33 8.09,3.98 2.11,2.66 3.16,5.98 3.16,9.97 0,4.46 -2.07,10.13 -6.21,17 14.85,-20.63 25.99,-30.95 33.42,-30.95 3.36,0 6.19,1.44 8.5,4.33 2.31,2.9 3.46,6.42 3.46,10.56 0,4.85 -1.92,10.51 -5.75,17 -0.07,0.08 -3.44,5.08 -10.08,15.01 -3.83,5.63 -5.75,9.93 -5.75,12.9 0,3.21 1.61,4.81 4.82,4.81 6.1,0 16.2,-9.87 30.29,-29.6 l 3.64,-5.05 2.12,-2.58 c 0.39,-0.78 0.78,-1.18 1.17,-1.18 0.47,0 0.7,0.24 0.7,0.71 -0.07,0.23 -0.46,0.86 -1.17,1.88 l -5.05,6.92 c -14.71,20.44 -25.59,30.66 -32.63,30.66 -3.68,0 -6.7,-1.37 -9.04,-4.11 -2.35,-2.73 -3.52,-6.25 -3.52,-10.55 0,-4.38 1.48,-9.11 4.45,-14.19 0.55,-0.94 3.4,-5.12 8.56,-12.55 6.57,-9.38 9.85,-15.51 9.85,-18.41 0,-3.2 -1.6,-4.8 -4.8,-4.8 -8.44,0 -21.81,14.15 -40.12,42.47 0.26,-0.01 0.53,-0.03 0.81,-0.05 -29.31,46.59 -47.8,76.38 -55.46,89.35 -7.74,13.22 -11.61,21.54 -11.61,24.98 0,3.52 1.6,5.28 4.81,5.28 5.11,0 12.77,-6.38 22.99,-19.14 0.88,-2.7 2.24,-5.58 4.08,-8.65 l 21.34,-35.88 c 2.66,0.54 4.73,0.82 6.22,0.82 1.48,0 4.14,-0.28 7.97,-0.82 l -27.91,45.96 c -2.81,4.69 -4.22,8.84 -4.22,12.43 0,3.52 1.48,5.28 4.46,5.28 7.89,0 20.56,-14.74 37.99,-44.21 l 11.49,-19.46 c 2.42,0.54 4.46,0.82 6.1,0.82 1.95,0 4.73,-0.28 8.32,-0.82 l -18.76,30.6 c -8.91,14.54 -13.37,23.88 -13.37,28.03 0,3.36 1.61,5.04 4.82,5.04 5.45,0 13.88,-7.48 25.26,-22.45 0.67,-5.63 3.27,-11.45 7.79,-17.42 5.31,-7.04 12.46,-13.09 21.45,-18.18 7.59,-4.37 13.76,-6.56 18.53,-6.56 5.79,0 8.68,3.44 8.68,10.32 0,5.39 -1.82,10.78 -5.45,16.18 -3.64,5.39 -7.26,8.09 -10.85,8.09 -3.52,0 -5.28,-1.76 -5.28,-5.28 0,-4.14 3.6,-7.97 10.79,-11.49 5.55,-2.73 8.33,-6.33 8.33,-10.79 0,-3.51 -1.92,-5.27 -5.75,-5.27 -6.49,0 -14.46,6.44 -23.92,19.34 -9.46,12.9 -14.19,23.73 -14.19,32.49 0,7.34 3.44,11.02 10.33,11.02 9.12,0 20.97,-8.68 35.55,-26.05 0.48,-0.89 0.99,-1.81 1.54,-2.74 l 19.7,-33.06 h -11.96 l 1.17,-1.76 h 11.73 l 13.72,-22.75 c 2.35,0.62 4.57,0.94 6.68,0.94 2.19,0 4.46,-0.32 6.8,-0.94 l -13.48,22.75 h 15.36 l -0.94,1.76 h -15.36 l -26.15,44.67 c -3.2,5.4 -4.8,9.7 -4.8,12.9 0,3.52 1.83,5.28 5.51,5.28 5.87,0 15.04,-8.4 27.51,-25.2 1.03,-2.63 2.52,-5.24 4.46,-7.81 4.18,-5.55 8.5,-8.33 12.96,-8.33 0.78,0 1.48,0.16 2.11,0.47 l 9.38,-11.49 c 2.81,-3.36 6.57,-8.02 11.26,-13.96 1.32,-5.47 3.36,-10.16 6.09,-14.07 2.74,-3.91 5.44,-5.86 8.09,-5.86 1.25,0 1.88,0.68 1.88,2.05 0,3.12 -4.89,9.31 -14.66,18.59 -0.47,2.42 -0.7,4.53 -0.7,6.33 0,4.53 2.07,11.72 6.22,21.57 2.1,4.93 3.16,9.07 3.16,12.43 0,7.04 -3.42,13.14 -10.26,18.3 z"
   id="path10" />
			<path
   class="st0"
   d="m 380.62,296.67 c 0,-3.99 1.19,-7.43 3.57,-10.32 2.39,-2.89 5.22,-4.34 8.51,-4.34 4.76,0 7.15,2.66 7.15,7.98 0,2.65 -0.8,4.92 -2.4,6.8 -1.61,1.87 -3.58,2.81 -5.93,2.81 -4.06,0 -6.02,-2.11 -5.86,-6.33 0.08,-1.72 -0.08,-2.58 -0.47,-2.58 -1.25,0 -1.87,2.07 -1.87,6.21 0,6.49 3.18,11.89 9.55,16.19 6.37,4.29 14.4,6.45 24.1,6.45 17.12,0 32.64,-6.34 46.55,-19 6.1,-5.55 11.3,-11.22 15.6,-17 4.69,-6.26 14.93,-21.42 30.72,-45.5 7.89,-11.88 17.2,-23.8 27.91,-35.77 10.71,-11.96 19.81,-20.52 27.32,-25.68 C 552.87,166.2 534.97,161 511.36,161 c -32.99,0 -61.67,11.92 -86.07,35.76 -20.01,19.55 -30.01,37.96 -30.01,55.23 0,8.76 2.81,15.72 8.44,20.88 5.63,5.16 13.25,7.73 22.86,7.73 15.72,0 31.96,-7.54 48.73,-22.63 16.76,-15.08 25.15,-29.74 25.15,-43.97 0,-11.33 -5.83,-17 -17.47,-17 -11.65,0 -24.14,6.5 -37.47,19.51 -13.33,13 -19.99,25.2 -19.99,36.61 0,2.81 0.94,5.23 2.83,7.26 1.88,2.03 4.08,3.05 6.6,3.05 1.33,0 2,0.35 2,1.05 0,0.63 -0.74,0.94 -2.23,0.94 -3.77,0 -6.95,-1.7 -9.54,-5.1 -2.59,-3.39 -3.88,-7.55 -3.88,-12.47 0,-12.19 6.68,-24.06 20.05,-35.62 13.37,-11.56 27.09,-17.34 41.16,-17.34 13.44,0 20.17,6.21 20.17,18.64 0,15.17 -8.56,30.49 -25.68,45.97 -17.12,15.48 -34.01,23.22 -50.66,23.22 -10.87,0 -19.56,-3.27 -26.09,-9.8 -6.53,-6.52 -9.79,-15.26 -9.79,-26.2 0,-22.13 12.49,-42.31 37.46,-60.57 24.98,-18.25 52.59,-27.38 82.85,-27.38 22.98,0 42.29,5.12 57.93,15.36 14.3,-8.91 28.14,-13.37 41.51,-13.37 10.47,0 18.89,3.13 25.26,9.38 6.38,6.24 9.56,14.48 9.56,24.71 0,4.06 -0.54,8.51 -1.62,13.35 -1.08,4.85 -2.12,7.27 -3.13,7.27 -0.78,0 -1.17,-0.39 -1.17,-1.18 0,-0.23 0.08,-0.58 0.23,-1.05 2.07,-5.47 3.11,-11.36 3.11,-17.69 0,-9.83 -2.93,-17.74 -8.79,-23.71 -5.87,-5.98 -13.61,-8.96 -23.22,-8.96 -12.98,0 -26.35,4.26 -40.1,12.78 11.72,9.38 17.59,20.01 17.59,31.89 0,10.01 -4.03,18.72 -12.07,26.15 -8.04,7.43 -17.46,11.14 -28.23,11.14 -4.22,0 -8.75,-0.85 -13.59,-2.54 -4.85,-1.69 -7.27,-3.29 -7.27,-4.78 0.16,-0.48 0.47,-0.71 0.94,-0.71 0.39,0 1.02,0.24 1.87,0.71 4.85,2.77 9.73,4.15 14.65,4.15 8.9,0 16.53,-3.82 22.89,-11.49 6.37,-7.66 9.55,-16.8 9.55,-27.44 0,-9.14 -3.28,-17.31 -9.85,-24.5 -16.97,12.66 -33.07,34.94 -48.31,66.84 -9.23,19.3 -17.67,33.22 -25.33,41.74 -7.66,8.52 -18.41,16.22 -32.25,23.1 -16.34,7.97 -30.92,11.96 -43.74,11.96 -10.47,0 -19.19,-2.4 -26.15,-7.21 -6.95,-4.81 -10.43,-10.81 -10.43,-18 z"
   id="path12" />
			<path
   class="st0"
   d="m 648.68,237.57 c 0,-2.58 1.21,-5.06 3.63,-7.45 2.42,-2.38 4.97,-3.57 7.62,-3.57 3.36,0 5.05,1.68 5.05,5.04 0,2.74 -1.16,5.3 -3.46,7.68 -2.31,2.39 -4.83,3.58 -7.57,3.58 -3.51,0 -5.27,-1.76 -5.27,-5.28 z"
   id="path14" />
			<path
   class="st0"
   d="M 890.65,439.26 892,438 c -0.01,0.04 -0.01,0.07 -0.02,0.11 -0.23,0.38 -0.46,0.77 -0.7,1.15 z"
   id="path16" />
			<path
   class="st0"
   d="m 899.29,380.25 c 2.1,4.93 3.16,9.07 3.16,12.43 0,7.04 -3.42,13.14 -10.26,18.3 -6.84,5.16 -14.95,7.74 -24.33,7.74 -5.32,0 -9.56,-1.51 -12.73,-4.52 -3.16,-3.01 -4.74,-7.05 -4.74,-12.13 0,-1.83 0.2,-3.65 0.61,-5.45 -11.94,15.4 -21.13,23.1 -27.59,23.1 -3.68,0 -6.75,-1.33 -9.21,-3.99 -2.47,-2.66 -3.7,-5.98 -3.7,-9.97 0,-3.04 0.87,-6.56 2.61,-10.58 -1.08,1.2 -2.22,2.47 -3.44,3.81 -12.05,13.15 -22.29,19.73 -30.75,19.73 -5.47,0 -10.17,-2.1 -14.08,-6.28 -3.91,-4.18 -5.87,-9.16 -5.87,-14.95 v -0.13 c -1.22,1.47 -2.53,3.03 -3.93,4.68 -9.39,11.12 -16.83,16.68 -22.31,16.68 -3.44,0 -6.36,-1.39 -8.74,-4.17 -2.39,-2.77 -3.58,-6.11 -3.58,-10.02 0,-3.05 1.52,-7.31 4.57,-12.78 l -2.35,3.16 c -7.19,9.23 -12.47,15.4 -15.83,18.53 -3.67,3.52 -7.15,5.28 -10.43,5.28 -3.44,0 -6.33,-1.35 -8.68,-4.05 -2.35,-2.7 -3.52,-6 -3.52,-9.91 0,-1.24 0.13,-2.54 0.41,-3.89 -9.89,11.9 -17.52,17.85 -22.89,17.85 -3.61,0 -6.54,-1.35 -8.81,-4.05 -2.27,-2.7 -3.4,-6.16 -3.4,-10.38 0,-4.22 1.4,-9.1 4.22,-14.65 -13.68,19.38 -23.85,29.08 -30.49,29.08 -4.14,0 -7.62,-1.78 -10.44,-5.34 -2.81,-3.55 -4.22,-8.03 -4.22,-13.42 0,-1.87 0.17,-3.71 0.51,-5.53 -2.64,1.2 -5.19,1.8 -7.65,1.8 -2.58,0 -4.87,-0.51 -6.86,-1.54 -10.99,16.02 -21.31,24.03 -30.96,24.03 -5,0 -9.26,-2.12 -12.8,-6.36 -3.54,-4.24 -5.3,-9.32 -5.3,-15.23 0,-2.1 0.21,-4.2 0.64,-6.28 -3.57,2.58 -7,3.88 -10.29,3.88 -5.95,0 -8.92,-3.44 -8.92,-10.32 0,-2.19 0.46,-4.97 1.4,-8.33 -4.92,4.3 -8.93,8.56 -12.02,12.78 -3.09,4.22 -8.42,12.83 -16,25.8 -4.15,-0.31 -6.57,-0.47 -7.27,-0.47 -0.32,0 -2.7,0.16 -7.16,0.47 l 19.24,-31.19 c 9.61,-15.63 14.42,-25.33 14.42,-29.08 0,-2.19 -0.9,-3.28 -2.7,-3.28 -4.39,0 -12.34,8.42 -23.86,25.26 -0.7,1.1 -1.33,1.65 -1.88,1.65 -0.31,-0.08 -0.47,-0.31 -0.47,-0.71 0.08,-0.39 0.24,-0.7 0.47,-0.94 l 2.12,-2.93 c 1.52,-2.03 2.98,-3.93 4.38,-5.7 -0.05,-0.1 -0.07,-0.23 -0.07,-0.37 0,-0.15 0.05,-0.37 0.15,-0.67 1.32,-3.49 1.98,-7.25 1.98,-11.28 0,-6.28 -1.87,-11.32 -5.61,-15.13 -3.74,-3.81 -8.68,-5.72 -14.81,-5.72 -8.28,0 -16.81,2.72 -25.58,8.15 7.48,5.99 11.22,12.77 11.22,20.35 0,6.38 -2.57,11.94 -7.7,16.68 -5.13,4.74 -11.14,7.11 -18.01,7.11 -2.69,0 -5.58,-0.54 -8.67,-1.62 -3.09,-1.08 -4.63,-2.1 -4.63,-3.06 0.1,-0.3 0.3,-0.45 0.6,-0.45 0.24,0 0.64,0.15 1.19,0.46 3.09,1.76 6.2,2.65 9.34,2.65 5.68,0 10.55,-2.45 14.61,-7.33 4.06,-4.89 6.09,-10.73 6.09,-17.51 0,-5.83 -2.1,-11.04 -6.29,-15.63 -10.82,8.08 -21.09,22.29 -30.82,42.64 -5.88,12.31 -11.27,21.19 -16.15,26.62 -4.89,5.44 -11.75,10.35 -20.57,14.74 -10.43,5.09 -19.73,7.63 -27.9,7.63 -6.69,0 -12.25,-1.53 -16.68,-4.6 -4.44,-3.07 -6.66,-6.89 -6.66,-11.48 0,-2.55 0.76,-4.74 2.28,-6.58 1.52,-1.85 3.33,-2.77 5.42,-2.77 3.04,0 4.57,1.69 4.57,5.08 0,1.7 -0.52,3.15 -1.54,4.34 -1.02,1.2 -2.28,1.8 -3.78,1.8 -2.59,0 -3.84,-1.35 -3.74,-4.04 0.05,-1.1 -0.05,-1.65 -0.29,-1.65 -0.8,0 -1.2,1.32 -1.2,3.97 0,4.14 2.03,7.58 6.09,10.32 4.07,2.74 9.19,4.11 15.38,4.11 10.92,0 20.82,-4.03 29.69,-12.11 3.89,-3.54 7.21,-7.16 9.95,-10.85 2.99,-3.99 9.53,-13.66 19.6,-29.02 5.04,-7.58 10.97,-15.19 17.8,-22.82 6.83,-7.63 12.64,-13.09 17.43,-16.38 -7.78,-6.63 -19.2,-9.95 -34.26,-9.95 -21.04,0 -39.34,7.61 -54.9,22.82 -12.77,12.46 -19.15,24.21 -19.15,35.23 0,5.58 1.79,10.02 5.38,13.31 3.59,3.29 8.46,4.94 14.59,4.94 10.02,0 20.38,-4.81 31.08,-14.44 10.7,-9.62 16.05,-18.97 16.05,-28.05 0,-7.23 -3.72,-10.84 -11.15,-10.84 -7.43,0 -15.4,4.14 -23.9,12.44 -8.5,8.3 -12.75,16.08 -12.75,23.35 0,1.8 0.6,3.34 1.8,4.64 1.2,1.3 2.61,1.94 4.21,1.94 0.85,0 1.28,0.23 1.28,0.67 0,0.4 -0.48,0.6 -1.43,0.6 -2.4,0 -4.43,-1.08 -6.08,-3.25 -1.65,-2.17 -2.48,-4.82 -2.48,-7.96 0,-7.77 4.27,-15.34 12.8,-22.72 8.52,-7.37 17.27,-11.06 26.25,-11.06 8.58,0 12.87,3.96 12.87,11.89 0,9.68 -5.46,19.45 -16.39,29.33 -10.92,9.87 -21.69,14.81 -32.31,14.81 -6.93,0 -12.48,-2.09 -16.64,-6.25 -4.17,-4.16 -6.25,-9.73 -6.25,-16.72 0,-14.11 7.97,-26.99 23.9,-38.63 15.93,-11.65 33.55,-17.47 52.85,-17.47 14.66,0 26.98,3.27 36.95,9.8 9.13,-5.68 17.95,-8.53 26.48,-8.53 6.68,0 12.05,2 16.12,5.98 4.06,3.99 6.1,9.24 6.1,15.77 0,2.59 -0.35,5.43 -1.04,8.52 -0.1,0.47 -0.21,0.91 -0.31,1.31 8.42,-10.3 14.36,-15.45 17.8,-15.45 6.27,0 9.4,4.02 9.4,12.07 0,6.03 -3.21,14 -9.61,23.93 4.06,-4.69 7.93,-8.52 11.6,-11.5 2.97,-6.95 6.67,-12.78 11.09,-17.47 4.41,-4.69 8.38,-7.03 11.9,-7.03 2.42,0 3.63,1.05 3.63,3.16 0,3.76 -5.43,9.11 -16.3,16.07 -1.72,1.09 -4.3,2.69 -7.74,4.8 l -1.4,1.18 c -1.1,3.59 -1.65,6.56 -1.65,8.91 0,6.57 2.47,9.85 7.41,9.85 3.36,0 6.88,-1.53 10.57,-4.6 2.82,-10.2 10.83,-20.11 24.03,-29.74 11.81,-8.65 21.54,-12.98 29.19,-12.98 7.15,0 10.73,3.94 10.73,11.82 0,9.85 -5.03,21.71 -15.09,35.59 1.66,1.03 3.53,1.54 5.61,1.54 2.5,0 5.28,-0.8 8.35,-2.41 2.51,-10 10.22,-19.22 23.12,-27.65 12.74,-8.36 22.75,-12.54 30.02,-12.54 4.85,0 7.27,2.34 7.27,7.03 0,2.19 -0.67,4.66 -1.99,7.39 l 28.87,-48.36 c -0.2,0.02 -0.4,0.04 -0.59,0.07 l 10.12,-16.03 3.46,-5.8 c 0.06,0.02 0.11,0.03 0.17,0.05 l 2.9,-4.6 c 10.86,-17.36 16.3,-27.99 16.3,-31.9 0,-3.52 -1.45,-5.27 -4.34,-5.27 -4.3,0 -11.34,6.17 -21.11,18.52 -9.77,12.36 -19.46,27.36 -29.08,45.03 -1.8,-0.31 -4.1,-0.47 -6.92,-0.47 -3.05,0 -5.7,0.16 -7.97,0.47 l 16.77,-26.38 c 11.57,-18.14 17.35,-29.36 17.35,-33.66 0,-2.34 -0.9,-3.51 -2.7,-3.51 -3.84,0 -11.79,8.38 -23.85,25.15 -0.61,0.84 -1.12,1.37 -1.54,1.56 -0.08,0.1 -0.15,0.21 -0.23,0.32 l -5.04,6.92 c -14.72,20.44 -25.95,30.66 -33.7,30.66 -3.68,0 -6.75,-1.31 -9.21,-3.93 -2.47,-2.62 -3.7,-5.88 -3.7,-9.79 0,-4.1 2.21,-10.12 6.62,-18.05 -0.27,0.29 -0.55,0.59 -0.83,0.9 -5.95,6.58 -11.55,9.88 -16.8,9.88 -5.95,0 -8.92,-3.44 -8.92,-10.32 0,-2.19 0.46,-4.97 1.4,-8.33 -4.92,4.3 -8.93,8.56 -12.02,12.78 -3.09,4.22 -8.42,12.82 -16,25.8 -4.15,-0.31 -6.57,-0.47 -7.27,-0.47 -0.32,0 -2.7,0.16 -7.16,0.47 l 19.24,-31.19 c 9.61,-15.64 14.42,-25.33 14.42,-29.08 0,-2.19 -0.9,-3.28 -2.7,-3.28 -4.39,0 -12.34,8.42 -23.86,25.26 -0.7,1.1 -1.33,1.65 -1.88,1.65 -0.31,-0.08 -0.47,-0.32 -0.47,-0.71 0.08,-0.39 0.24,-0.7 0.47,-0.94 l 2.12,-2.93 c 12.05,-16.06 20.24,-24.09 24.54,-24.09 6.27,0 9.4,4.02 9.4,12.07 0,6.02 -3.21,14 -9.61,23.93 4.06,-4.7 7.93,-8.52 11.6,-11.5 2.97,-6.95 6.67,-12.78 11.09,-17.47 4.41,-4.69 8.38,-7.03 11.9,-7.03 2.42,0 3.63,1.05 3.63,3.16 0,3.75 -5.43,9.11 -16.3,16.07 -1.72,1.09 -4.3,2.69 -7.74,4.8 l -1.4,1.18 c -1.1,3.59 -1.65,6.56 -1.65,8.91 0,6.57 2.47,9.85 7.41,9.85 6.11,0 12.76,-5.06 19.97,-15.18 0.8,-0.88 1.44,-1.54 1.94,-1.97 l 15.24,-25.89 c 2.43,0.55 4.34,0.83 5.75,0.83 2.11,0 5.08,-0.28 8.91,-0.83 l -26.62,43.74 c -3.83,6.33 -5.74,11.22 -5.74,14.66 0,3.52 1.84,5.28 5.52,5.28 6.96,0 19.21,-12.41 36.75,-37.23 0.33,-0.66 0.66,-1.05 0.99,-1.15 1.47,-2.2 4.78,-6.53 9.93,-13.01 7.05,-8.82 12.49,-13.22 16.33,-13.22 2.5,0 4.66,1.19 6.46,3.57 1.8,2.39 2.7,5.22 2.7,8.5 0,4.54 -2.31,10.83 -6.92,18.88 14.07,-20.63 24.55,-30.95 31.43,-30.95 3.28,0 5.98,1.33 8.09,3.98 2.11,2.66 3.16,5.98 3.16,9.97 0,4.46 -2.07,10.13 -6.21,17 14.85,-20.63 25.99,-30.95 33.42,-30.95 3.36,0 6.19,1.44 8.5,4.33 2.31,2.9 3.46,6.42 3.46,10.56 0,4.85 -1.92,10.51 -5.75,17 -0.07,0.08 -3.44,5.08 -10.08,15.01 -3.83,5.63 -5.75,9.93 -5.75,12.9 0,3.21 1.61,4.81 4.82,4.81 6.1,0 16.2,-9.87 30.29,-29.6 l 3.64,-5.05 2.12,-2.58 c 0.39,-0.78 0.78,-1.18 1.17,-1.18 0.47,0 0.7,0.24 0.7,0.71 -0.07,0.23 -0.46,0.86 -1.17,1.88 l -5.05,6.92 c -14.71,20.44 -25.59,30.66 -32.63,30.66 -3.68,0 -6.7,-1.37 -9.04,-4.11 -2.35,-2.73 -3.52,-6.25 -3.52,-10.55 0,-4.38 1.48,-9.11 4.45,-14.19 0.55,-0.94 3.4,-5.12 8.56,-12.55 6.57,-9.38 9.85,-15.51 9.85,-18.41 0,-3.2 -1.6,-4.8 -4.8,-4.8 -8.44,0 -21.81,14.15 -40.12,42.47 0.26,-0.01 0.53,-0.03 0.81,-0.05 -29.31,46.59 -47.8,76.38 -55.46,89.35 -7.74,13.22 -11.61,21.54 -11.61,24.98 0,3.52 1.6,5.28 4.81,5.28 5.11,0 12.77,-6.38 22.99,-19.14 0.88,-2.7 2.24,-5.58 4.08,-8.65 l 21.34,-35.88 c 2.66,0.54 4.73,0.82 6.22,0.82 1.48,0 4.14,-0.28 7.97,-0.82 l -27.91,45.96 c -2.81,4.69 -4.22,8.84 -4.22,12.43 0,3.52 1.48,5.28 4.46,5.28 7.89,0 20.56,-14.74 37.99,-44.21 l 11.49,-19.46 c 2.42,0.54 4.46,0.82 6.1,0.82 1.95,0 4.73,-0.28 8.32,-0.82 l -18.76,30.6 c -8.91,14.54 -13.37,23.88 -13.37,28.03 0,3.36 1.61,5.04 4.82,5.04 5.45,0 13.88,-7.48 25.26,-22.45 0.67,-5.63 3.27,-11.45 7.79,-17.42 5.31,-7.04 12.46,-13.09 21.45,-18.18 7.59,-4.37 13.76,-6.56 18.53,-6.56 5.79,0 8.68,3.44 8.68,10.32 0,5.39 -1.82,10.78 -5.45,16.18 -3.64,5.39 -7.26,8.09 -10.85,8.09 -3.52,0 -5.28,-1.76 -5.28,-5.28 0,-4.14 3.6,-7.97 10.79,-11.49 5.55,-2.73 8.33,-6.33 8.33,-10.79 0,-3.51 -1.92,-5.27 -5.75,-5.27 -6.49,0 -14.46,6.44 -23.92,19.34 -9.46,12.9 -14.19,23.73 -14.19,32.49 0,7.34 3.44,11.02 10.33,11.02 9.12,0 20.97,-8.68 35.55,-26.05 0.48,-0.89 0.99,-1.81 1.54,-2.74 l 19.7,-33.06 h -11.96 l 1.17,-1.76 h 11.73 l 13.72,-22.75 c 2.35,0.62 4.57,0.94 6.68,0.94 2.19,0 4.46,-0.32 6.8,-0.94 l -13.48,22.75 h 15.36 l -0.94,1.76 h -15.36 l -26.15,44.67 c -3.2,5.4 -4.8,9.7 -4.8,12.9 0,3.52 1.83,5.28 5.51,5.28 5.87,0 15.04,-8.4 27.51,-25.2 1.03,-2.63 2.52,-5.24 4.46,-7.81 4.18,-5.55 8.5,-8.33 12.96,-8.33 0.78,0 1.48,0.16 2.11,0.47 l 9.38,-11.49 c 2.81,-3.36 6.57,-8.02 11.26,-13.96 1.32,-5.47 3.36,-10.16 6.09,-14.07 2.74,-3.91 5.44,-5.86 8.09,-5.86 1.25,0 1.88,0.68 1.88,2.05 0,3.12 -4.89,9.31 -14.66,18.59 -0.47,2.42 -0.7,4.53 -0.7,6.33 0,4.53 2.07,11.72 6.22,21.57 z"
   id="path18" />
			<path
   class="st0"
   d="m 892,438 -1.35,1.26 -207.17,-0.72 -143.51,-0.49 c -0.01,-0.02 -0.02,-0.03 -0.03,-0.05 z"
   id="path20" />
			<g
   id="g46">
				<path
   d="m 635.48,170.14 c -6.37,-6.25 -14.79,-9.38 -25.26,-9.38 -13.37,0 -27.21,4.46 -41.51,13.37 -15.64,-10.24 -34.95,-15.36 -57.93,-15.36 -30.26,0 -57.87,9.13 -82.85,27.38 -24.97,18.26 -37.46,38.44 -37.46,60.57 0,10.94 3.26,19.68 9.79,26.2 6.53,6.53 15.22,9.8 26.09,9.8 16.65,0 33.54,-7.74 50.66,-23.22 17.12,-15.48 25.68,-30.8 25.68,-45.97 0,-12.43 -6.73,-18.64 -20.17,-18.64 -14.07,0 -27.79,5.78 -41.16,17.34 -13.37,11.56 -20.05,23.43 -20.05,35.62 0,4.92 1.29,9.08 3.88,12.47 2.59,3.4 5.77,5.1 9.54,5.1 1.49,0 2.23,-0.31 2.23,-0.94 0,-0.7 -0.67,-1.05 -2,-1.05 -2.52,0 -4.72,-1.02 -6.6,-3.05 -1.89,-2.03 -2.83,-4.45 -2.83,-7.26 0,-11.41 6.66,-23.61 19.99,-36.61 13.33,-13.01 25.82,-19.51 37.47,-19.51 11.64,0 17.47,5.67 17.47,17 0,14.23 -8.39,28.89 -25.15,43.97 -16.77,15.09 -33.01,22.63 -48.73,22.63 -9.61,0 -17.23,-2.57 -22.86,-7.73 -5.63,-5.16 -8.44,-12.12 -8.44,-20.88 0,-17.27 10,-35.68 30.01,-55.23 24.4,-23.84 53.08,-35.76 86.07,-35.76 23.61,0 41.51,5.2 53.71,15.59 -7.51,5.16 -16.61,13.72 -27.32,25.68 -10.71,11.97 -20.02,23.89 -27.91,35.77 -15.79,24.08 -26.03,39.24 -30.72,45.5 -4.3,5.78 -9.5,11.45 -15.6,17 -13.91,12.66 -29.43,19 -46.55,19 -9.7,0 -17.73,-2.16 -24.1,-6.45 -6.37,-4.3 -9.55,-9.7 -9.55,-16.19 0,-4.14 0.62,-6.21 1.87,-6.21 0.39,0 0.55,0.86 0.47,2.58 -0.16,4.22 1.8,6.33 5.86,6.33 2.35,0 4.32,-0.94 5.93,-2.81 1.6,-1.88 2.4,-4.15 2.4,-6.8 0,-5.32 -2.39,-7.98 -7.15,-7.98 -3.29,0 -6.12,1.45 -8.51,4.34 -2.38,2.89 -3.57,6.33 -3.57,10.32 0,7.19 3.48,13.19 10.43,18 6.96,4.81 15.68,7.21 26.15,7.21 12.82,0 27.4,-3.99 43.74,-11.96 13.84,-6.88 24.59,-14.58 32.25,-23.1 7.66,-8.52 16.1,-22.44 25.33,-41.74 15.24,-31.9 31.34,-54.18 48.31,-66.84 6.57,7.19 9.85,15.36 9.85,24.5 0,10.64 -3.18,19.78 -9.55,27.44 -6.36,7.67 -13.99,11.49 -22.89,11.49 -4.92,0 -9.8,-1.38 -14.65,-4.15 -0.85,-0.47 -1.48,-0.71 -1.87,-0.71 -0.47,0 -0.78,0.23 -0.94,0.71 0,1.49 2.42,3.09 7.27,4.78 4.84,1.69 9.37,2.54 13.59,2.54 10.77,0 20.19,-3.71 28.23,-11.14 8.04,-7.43 12.07,-16.14 12.07,-26.15 0,-11.88 -5.87,-22.51 -17.59,-31.89 13.75,-8.52 27.12,-12.78 40.1,-12.78 9.61,0 17.35,2.98 23.22,8.96 5.86,5.97 8.79,13.88 8.79,23.71 0,6.33 -1.04,12.22 -3.11,17.69 -0.15,0.47 -0.23,0.82 -0.23,1.05 0,0.79 0.39,1.18 1.17,1.18 1.01,0 2.05,-2.42 3.13,-7.27 1.08,-4.84 1.62,-9.29 1.62,-13.35 0,-10.23 -3.18,-18.47 -9.56,-24.71 z"
   id="path22" />
				<path
   d="m 625.99,279.37 c -0.2,0 -0.53,0.21 -1,0.62 -0.5,0.43 -1.14,1.09 -1.94,1.97 -7.21,10.12 -13.86,15.18 -19.97,15.18 -4.94,0 -7.41,-3.28 -7.41,-9.85 0,-2.35 0.55,-5.32 1.65,-8.91 l 1.4,-1.18 c 3.44,-2.11 6.02,-3.71 7.74,-4.8 10.87,-6.96 16.3,-12.32 16.3,-16.07 0,-2.11 -1.21,-3.16 -3.63,-3.16 -3.52,0 -7.49,2.34 -11.9,7.03 -4.42,4.69 -8.12,10.52 -11.09,17.47 -3.67,2.98 -7.54,6.8 -11.6,11.5 6.4,-9.93 9.61,-17.91 9.61,-23.93 0,-8.05 -3.13,-12.07 -9.4,-12.07 -4.3,0 -12.49,8.03 -24.54,24.09 l -2.12,2.93 c -0.23,0.24 -0.39,0.55 -0.47,0.94 0,0.39 0.16,0.63 0.47,0.71 0.55,0 1.18,-0.55 1.88,-1.65 11.52,-16.84 19.47,-25.26 23.86,-25.26 1.8,0 2.7,1.09 2.7,3.28 0,3.75 -4.81,13.44 -14.42,29.08 l -19.24,31.19 c 4.46,-0.31 6.84,-0.47 7.16,-0.47 0.7,0 3.12,0.16 7.27,0.47 7.58,-12.98 12.91,-21.58 16,-25.8 3.09,-4.22 7.1,-8.48 12.02,-12.78 -0.94,3.36 -1.4,6.14 -1.4,8.33 0,6.88 2.97,10.32 8.92,10.32 5.25,0 10.85,-3.3 16.8,-9.88 0.28,-0.31 0.56,-0.61 0.83,-0.9 4.15,-4.54 6.22,-7.1 6.22,-7.69 0,-0.47 -0.23,-0.71 -0.7,-0.71 z"
   id="path24" />
				<path
   d="m 659.93,226.55 c -2.65,0 -5.2,1.19 -7.62,3.57 -2.42,2.39 -3.63,4.87 -3.63,7.45 0,3.52 1.76,5.28 5.27,5.28 2.74,0 5.26,-1.19 7.57,-3.58 2.3,-2.38 3.46,-4.94 3.46,-7.68 0,-3.36 -1.69,-5.04 -5.05,-5.04 z m 6.04,52.82 c -0.06,0 -0.12,0.01 -0.18,0.03 -0.33,0.1 -0.66,0.49 -0.99,1.15 -17.54,24.82 -29.79,37.23 -36.75,37.23 -3.68,0 -5.52,-1.76 -5.52,-5.28 0,-3.44 1.91,-8.33 5.74,-14.66 l 26.62,-43.74 c -3.83,0.55 -6.8,0.83 -8.91,0.83 -1.41,0 -3.32,-0.28 -5.75,-0.83 l -15.24,25.89 -3.05,5.19 c -0.52,0.88 -1.01,1.75 -1.47,2.59 -4.41,7.93 -6.62,13.95 -6.62,18.05 0,3.91 1.23,7.17 3.7,9.79 2.46,2.62 5.53,3.93 9.21,3.93 7.75,0 18.98,-10.22 33.7,-30.66 l 5.04,-6.92 c 0.08,-0.11 0.15,-0.22 0.23,-0.32 0.56,-0.83 0.88,-1.36 0.95,-1.56 0,-0.47 -0.24,-0.71 -0.71,-0.71 z"
   id="path26" />
				<path
   d="m 796.6,279.37 c -0.39,0 -0.78,0.4 -1.17,1.18 l -2.12,2.58 -3.64,5.05 c -14.09,19.73 -24.19,29.6 -30.29,29.6 -3.21,0 -4.82,-1.6 -4.82,-4.81 0,-2.97 1.92,-7.27 5.75,-12.9 6.64,-9.93 10.01,-14.93 10.08,-15.01 3.83,-6.49 5.75,-12.15 5.75,-17 0,-4.14 -1.15,-7.66 -3.46,-10.56 -2.31,-2.89 -5.14,-4.33 -8.5,-4.33 -7.43,0 -18.57,10.32 -33.42,30.95 4.14,-6.87 6.21,-12.54 6.21,-17 0,-3.99 -1.05,-7.31 -3.16,-9.97 -2.11,-2.65 -4.81,-3.98 -8.09,-3.98 -6.88,0 -17.36,10.32 -31.43,30.95 4.61,-8.05 6.92,-14.34 6.92,-18.88 0,-3.28 -0.9,-6.11 -2.7,-8.5 -1.8,-2.38 -3.96,-3.57 -6.46,-3.57 -3.84,0 -9.28,4.4 -16.33,13.22 -5.15,6.48 -8.46,10.81 -9.93,13.01 -0.58,0.88 -0.87,1.42 -0.87,1.62 0,0.39 0.15,0.62 0.47,0.7 0.11,0 0.22,-0.03 0.34,-0.08 0.42,-0.19 0.93,-0.72 1.54,-1.56 12.06,-16.77 20.01,-25.15 23.85,-25.15 1.8,0 2.7,1.17 2.7,3.51 0,4.3 -5.78,15.52 -17.35,33.66 l -16.77,26.38 c 2.27,-0.31 4.92,-0.47 7.97,-0.47 2.82,0 5.12,0.16 6.92,0.47 9.62,-17.67 19.31,-32.67 29.08,-45.03 9.77,-12.35 16.81,-18.52 21.11,-18.52 2.89,0 4.34,1.75 4.34,5.27 0,3.91 -5.44,14.54 -16.3,31.9 l -2.9,4.6 -3.63,5.75 -10.12,16.03 c 0.19,-0.03 0.39,-0.05 0.59,-0.07 2.14,-0.27 4.68,-0.4 7.62,-0.4 2.73,0 4.88,0.16 6.45,0.47 4.58,-7.73 8.91,-14.76 13,-21.08 18.31,-28.32 31.68,-42.47 40.12,-42.47 3.2,0 4.8,1.6 4.8,4.8 0,2.9 -3.28,9.03 -9.85,18.41 -5.16,7.43 -8.01,11.61 -8.56,12.55 -2.97,5.08 -4.45,9.81 -4.45,14.19 0,4.3 1.17,7.82 3.52,10.55 2.34,2.74 5.36,4.11 9.04,4.11 7.04,0 17.92,-10.22 32.63,-30.66 l 5.05,-6.92 c 0.71,-1.02 1.1,-1.65 1.17,-1.88 0,-0.47 -0.23,-0.71 -0.7,-0.71 z"
   id="path28" />
				<path
   d="m 495.2,339.2 c -4.07,-3.98 -9.44,-5.98 -16.12,-5.98 -8.53,0 -17.35,2.85 -26.48,8.53 -9.97,-6.53 -22.29,-9.8 -36.95,-9.8 -19.3,0 -36.92,5.82 -52.85,17.47 -15.93,11.64 -23.9,24.52 -23.9,38.63 0,6.99 2.08,12.56 6.25,16.72 4.16,4.16 9.71,6.25 16.64,6.25 10.62,0 21.39,-4.94 32.31,-14.81 10.93,-9.88 16.39,-19.65 16.39,-29.33 0,-7.93 -4.29,-11.89 -12.87,-11.89 -8.98,0 -17.73,3.69 -26.25,11.06 -8.53,7.38 -12.8,14.95 -12.8,22.72 0,3.14 0.83,5.79 2.48,7.96 1.65,2.17 3.68,3.25 6.08,3.25 0.95,0 1.43,-0.2 1.43,-0.6 0,-0.44 -0.43,-0.67 -1.28,-0.67 -1.6,0 -3.01,-0.64 -4.21,-1.94 -1.2,-1.3 -1.8,-2.84 -1.8,-4.64 0,-7.27 4.25,-15.05 12.75,-23.35 8.5,-8.3 16.47,-12.44 23.9,-12.44 7.43,0 11.15,3.61 11.15,10.84 0,9.08 -5.35,18.43 -16.05,28.05 -10.7,9.63 -21.06,14.44 -31.08,14.44 -6.13,0 -11,-1.65 -14.59,-4.94 -3.59,-3.29 -5.38,-7.73 -5.38,-13.31 0,-11.02 6.38,-22.77 19.15,-35.23 15.56,-15.21 33.86,-22.82 54.9,-22.82 15.06,0 26.48,3.32 34.26,9.95 -4.79,3.29 -10.6,8.75 -17.43,16.38 -6.83,7.63 -12.76,15.24 -17.8,22.82 -10.07,15.36 -16.61,25.03 -19.6,29.02 -2.74,3.69 -6.06,7.31 -9.95,10.85 -8.87,8.08 -18.77,12.11 -29.69,12.11 -6.19,0 -11.31,-1.37 -15.38,-4.11 -4.06,-2.74 -6.09,-6.18 -6.09,-10.32 0,-2.65 0.4,-3.97 1.2,-3.97 0.24,0 0.34,0.55 0.29,1.65 -0.1,2.69 1.15,4.04 3.74,4.04 1.5,0 2.76,-0.6 3.78,-1.8 1.02,-1.19 1.54,-2.64 1.54,-4.34 0,-3.39 -1.53,-5.08 -4.57,-5.08 -2.09,0 -3.9,0.92 -5.42,2.77 -1.52,1.84 -2.28,4.03 -2.28,6.58 0,4.59 2.22,8.41 6.66,11.48 4.43,3.07 9.99,4.6 16.68,4.6 8.17,0 17.47,-2.54 27.9,-7.63 8.82,-4.39 15.68,-9.3 20.57,-14.74 4.88,-5.43 10.27,-14.31 16.15,-26.62 9.73,-20.35 20,-34.56 30.82,-42.64 4.19,4.59 6.29,9.8 6.29,15.63 0,6.78 -2.03,12.62 -6.09,17.51 -4.06,4.88 -8.93,7.33 -14.61,7.33 -3.14,0 -6.25,-0.89 -9.34,-2.65 -0.55,-0.31 -0.95,-0.46 -1.19,-0.46 -0.3,0 -0.5,0.15 -0.6,0.45 0,0.96 1.54,1.98 4.63,3.06 3.09,1.08 5.98,1.62 8.67,1.62 6.87,0 12.88,-2.37 18.01,-7.11 5.13,-4.74 7.7,-10.3 7.7,-16.68 0,-7.58 -3.74,-14.36 -11.22,-20.35 8.77,-5.43 17.3,-8.15 25.58,-8.15 6.13,0 11.07,1.91 14.81,5.72 3.74,3.81 5.61,8.85 5.61,15.13 0,4.03 -0.66,7.79 -1.98,11.28 -0.1,0.3 -0.15,0.52 -0.15,0.67 0,0.14 0.02,0.27 0.07,0.37 0.1,0.25 0.32,0.38 0.68,0.38 0.54,0 1.1,-1.11 1.68,-3.32 0.1,-0.4 0.21,-0.84 0.31,-1.31 0.69,-3.09 1.04,-5.93 1.04,-8.52 0,-6.53 -2.04,-11.78 -6.1,-15.77 z"
   id="path30" />
				<path
   d="m 558.99,375.55 c -0.4,0 -1.38,0.87 -2.94,2.59 -3.25,4.56 -6.38,8.09 -9.4,10.58 -3.69,3.07 -7.21,4.6 -10.57,4.6 -4.94,0 -7.41,-3.28 -7.41,-9.85 0,-2.35 0.55,-5.32 1.65,-8.91 l 1.4,-1.18 c 3.44,-2.11 6.02,-3.71 7.74,-4.8 10.87,-6.96 16.3,-12.31 16.3,-16.07 0,-2.11 -1.21,-3.16 -3.63,-3.16 -3.52,0 -7.49,2.34 -11.9,7.03 -4.42,4.69 -8.12,10.52 -11.09,17.47 -3.67,2.98 -7.54,6.81 -11.6,11.5 6.4,-9.93 9.61,-17.9 9.61,-23.93 0,-8.05 -3.13,-12.07 -9.4,-12.07 -3.44,0 -9.38,5.15 -17.8,15.45 -0.76,0.94 -1.55,1.92 -2.36,2.94 -1.4,1.77 -2.86,3.67 -4.38,5.7 l -2.12,2.93 c -0.23,0.24 -0.39,0.55 -0.47,0.94 0,0.4 0.16,0.63 0.47,0.71 0.55,0 1.18,-0.55 1.88,-1.65 11.52,-16.84 19.47,-25.26 23.86,-25.26 1.8,0 2.7,1.09 2.7,3.28 0,3.75 -4.81,13.45 -14.42,29.08 l -19.24,31.19 c 4.46,-0.31 6.84,-0.47 7.16,-0.47 0.7,0 3.12,0.16 7.27,0.47 7.58,-12.97 12.91,-21.58 16,-25.8 3.09,-4.22 7.1,-8.48 12.02,-12.78 -0.94,3.36 -1.4,6.14 -1.4,8.33 0,6.88 2.97,10.32 8.92,10.32 3.29,0 6.72,-1.3 10.29,-3.88 2.12,-1.55 4.29,-3.54 6.51,-6 4.7,-5.1 7.05,-7.96 7.05,-8.59 0,-0.47 -0.23,-0.71 -0.7,-0.71 z"
   id="path32" />
				<path
   d="m 628.5,374.84 c -0.42,0 -1.08,0.6 -2,1.8 -3.17,5.04 -7.26,9.34 -12.26,12.93 -1.66,1.19 -3.25,2.18 -4.77,2.97 -3.07,1.61 -5.85,2.41 -8.35,2.41 -2.08,0 -3.95,-0.51 -5.61,-1.54 10.06,-13.88 15.09,-25.74 15.09,-35.59 0,-7.88 -3.58,-11.82 -10.73,-11.82 -7.65,0 -17.38,4.33 -29.19,12.98 -13.2,9.63 -21.21,19.54 -24.03,29.74 -0.2,0.71 -0.37,1.42 -0.52,2.13 -0.43,2.08 -0.64,4.18 -0.64,6.28 0,5.91 1.76,10.99 5.3,15.23 3.54,4.24 7.8,6.36 12.8,6.36 9.65,0 19.97,-8.01 30.96,-24.03 1.99,1.03 4.28,1.54 6.86,1.54 2.46,0 5.01,-0.6 7.65,-1.8 3.98,-1.79 8.17,-4.95 12.57,-9.47 4.91,-5.04 7.37,-8.24 7.37,-9.6 0,-0.34 -0.17,-0.52 -0.5,-0.52 z m -33.99,-2.63 c -3.24,4.45 -4.87,8.78 -4.87,12.97 0,2.92 1.21,5.74 3.62,8.48 -10.64,15.25 -20.46,22.87 -29.44,22.87 -5.49,0 -8.23,-2.95 -8.23,-8.86 0,-10.19 5.45,-22.74 16.34,-37.65 10.89,-14.9 20.12,-22.35 27.69,-22.35 6.07,0 9.11,3.47 9.11,10.41 0,3.68 -0.67,7.02 -2,10.02 -0.5,-1.71 -1.41,-2.57 -2.74,-2.57 -3.08,0 -6.24,2.23 -9.48,6.68 z"
   id="path34" />
				<path
   d="m 699.96,378.55 c -0.4,0 -0.83,0.4 -1.29,1.18 -4.83,7.02 -9.26,13.05 -13.3,18.09 -10.22,12.76 -17.88,19.14 -22.99,19.14 -3.21,0 -4.81,-1.76 -4.81,-5.28 0,-3.44 3.87,-11.76 11.61,-24.98 7.66,-12.97 26.15,-42.76 55.46,-89.35 -0.28,0.02 -0.55,0.04 -0.81,0.05 -3.72,0.28 -5.87,0.42 -6.46,0.42 -2.45,0 -4.93,-0.37 -7.45,-1.12 -0.06,-0.02 -0.11,-0.03 -0.17,-0.05 l -3.46,5.8 -9.53,15.96 -28.87,48.36 c 1.32,-2.73 1.99,-5.2 1.99,-7.39 0,-4.69 -2.42,-7.03 -7.27,-7.03 -7.27,0 -17.28,4.18 -30.02,12.54 -12.9,8.43 -20.61,17.65 -23.12,27.65 -0.16,0.63 -0.3,1.26 -0.41,1.89 -0.34,1.82 -0.51,3.66 -0.51,5.53 0,5.39 1.41,9.87 4.22,13.42 2.82,3.56 6.3,5.34 10.44,5.34 6.64,0 16.81,-9.7 30.49,-29.08 -2.82,5.55 -4.22,10.43 -4.22,14.65 0,4.22 1.13,7.68 3.4,10.38 2.27,2.7 5.2,4.05 8.81,4.05 5.37,0 13,-5.95 22.89,-17.85 3.07,-3.7 6.35,-7.96 9.86,-12.8 l 5.05,-6.93 c 0.7,-1.02 1.09,-1.65 1.17,-1.88 0,-0.47 -0.23,-0.71 -0.7,-0.71 z m -76.28,38.41 c -4.3,0 -6.45,-2.62 -6.45,-7.86 0,-8.6 5.76,-19.91 17.3,-33.95 11.53,-14.03 20.81,-21.04 27.85,-21.04 3.82,0 5.74,2.07 5.74,6.21 0,4.3 -4.07,12.31 -12.19,24.04 -15.25,21.73 -26,32.6 -32.25,32.6 z"
   id="path36" />
				<path
   d="m 771.36,378.55 c -0.4,0 -0.79,0.4 -1.18,1.18 l -2.11,2.58 -3.64,5.05 c -1.82,2.55 -3.58,4.93 -5.27,7.15 -11.38,14.97 -19.81,22.45 -25.26,22.45 -3.21,0 -4.82,-1.68 -4.82,-5.04 0,-4.15 4.46,-13.49 13.37,-28.03 l 18.76,-30.6 c -3.59,0.54 -6.37,0.82 -8.32,0.82 -1.64,0 -3.68,-0.28 -6.1,-0.82 l -11.49,19.46 c -17.43,29.47 -30.1,44.21 -37.99,44.21 -2.98,0 -4.46,-1.76 -4.46,-5.28 0,-3.59 1.41,-7.74 4.22,-12.43 l 27.91,-45.96 c -3.83,0.54 -6.49,0.82 -7.97,0.82 -1.49,0 -3.56,-0.28 -6.22,-0.82 l -21.34,35.88 c -1.84,3.07 -3.2,5.95 -4.08,8.65 -0.34,1.04 -0.6,2.06 -0.79,3.05 -0.28,1.35 -0.41,2.65 -0.41,3.89 0,3.91 1.17,7.21 3.52,9.91 2.35,2.7 5.24,4.05 8.68,4.05 3.28,0 6.76,-1.76 10.43,-5.28 3.36,-3.13 8.64,-9.3 15.83,-18.53 l 2.35,-3.16 c -3.05,5.47 -4.57,9.73 -4.57,12.78 0,3.91 1.19,7.25 3.58,10.02 2.38,2.78 5.3,4.17 8.74,4.17 5.48,0 12.92,-5.56 22.31,-16.68 1.4,-1.65 2.71,-3.21 3.93,-4.68 8.72,-10.49 13.09,-16.52 13.09,-18.1 0,-0.47 -0.24,-0.71 -0.7,-0.71 z"
   id="path38" />
				<path
   d="m 825.75,378.55 c -0.47,0 -1.21,0.63 -2.23,1.88 -2.88,3.79 -5.66,7.28 -8.35,10.48 -14.58,17.37 -26.43,26.05 -35.55,26.05 -6.89,0 -10.33,-3.68 -10.33,-11.02 0,-8.76 4.73,-19.59 14.19,-32.49 9.46,-12.9 17.43,-19.34 23.92,-19.34 3.83,0 5.75,1.76 5.75,5.27 0,4.46 -2.78,8.06 -8.33,10.79 -7.19,3.52 -10.79,7.35 -10.79,11.49 0,3.52 1.76,5.28 5.28,5.28 3.59,0 7.21,-2.7 10.85,-8.09 3.63,-5.4 5.45,-10.79 5.45,-16.18 0,-6.88 -2.89,-10.32 -8.68,-10.32 -4.77,0 -10.94,2.19 -18.53,6.56 -8.99,5.09 -16.14,11.14 -21.45,18.18 -4.52,5.97 -7.12,11.79 -7.79,17.42 -0.12,0.96 -0.18,1.91 -0.19,2.85 v 0.13 c 0,5.79 1.96,10.77 5.87,14.95 3.91,4.18 8.61,6.28 14.08,6.28 8.46,0 18.7,-6.58 30.75,-19.73 1.22,-1.34 2.36,-2.61 3.44,-3.81 8.74,-9.71 13.11,-15.01 13.11,-15.92 0,-0.39 -0.16,-0.63 -0.47,-0.71 z"
   id="path40" />
				<path
   d="m 850.13,355.11 h 15.36 l 0.94,-1.76 h -15.36 l 13.48,-22.75 c -2.34,0.62 -4.61,0.94 -6.8,0.94 -2.11,0 -4.33,-0.32 -6.68,-0.94 l -13.72,22.75 h -11.73 l -1.17,1.76 h 11.96 l -19.7,33.06 c -0.55,0.93 -1.06,1.85 -1.54,2.74 -0.79,1.48 -1.48,2.9 -2.06,4.27 -1.74,4.02 -2.61,7.54 -2.61,10.58 0,3.99 1.23,7.31 3.7,9.97 2.46,2.66 5.53,3.99 9.21,3.99 6.46,0 15.65,-7.7 27.59,-23.1 1.81,-2.34 3.69,-4.86 5.63,-7.55 l 5.05,-6.93 c 0.71,-1.02 1.1,-1.65 1.18,-1.88 0,-0.47 -0.24,-0.71 -0.71,-0.71 -0.39,0 -0.86,0.4 -1.41,1.18 -3,4.4 -5.84,8.41 -8.54,12.03 -12.47,16.8 -21.64,25.2 -27.51,25.2 -3.68,0 -5.51,-1.76 -5.51,-5.28 0,-3.2 1.6,-7.5 4.8,-12.9 z"
   id="path42" />
				<path
   d="m 893.07,358.68 c 0,-1.8 0.23,-3.91 0.7,-6.33 9.77,-9.28 14.66,-15.47 14.66,-18.59 0,-1.37 -0.63,-2.05 -1.88,-2.05 -2.65,0 -5.35,1.95 -8.09,5.86 -2.73,3.91 -4.77,8.6 -6.09,14.07 -4.69,5.94 -8.45,10.6 -11.26,13.96 l -9.38,11.49 c -0.63,-0.31 -1.33,-0.47 -2.11,-0.47 -4.46,0 -8.78,2.78 -12.96,8.33 -1.94,2.57 -3.43,5.18 -4.46,7.81 -0.51,1.28 -0.9,2.56 -1.2,3.86 -0.41,1.8 -0.61,3.62 -0.61,5.45 0,5.08 1.58,9.12 4.74,12.13 3.17,3.01 7.41,4.52 12.73,4.52 9.38,0 17.49,-2.58 24.33,-7.74 6.84,-5.16 10.26,-11.26 10.26,-18.3 0,-3.36 -1.06,-7.5 -3.16,-12.43 -4.15,-9.85 -6.22,-17.04 -6.22,-21.57 z m -1.17,14.36 c 0.15,2.31 0.23,4.64 0.23,6.98 0,8.76 -2.95,16.94 -8.85,24.57 -5.9,7.62 -12.14,11.43 -18.7,11.43 -3.37,0 -6.18,-1.06 -8.45,-3.17 -2.27,-2.11 -3.4,-4.73 -3.4,-7.85 0,-2.89 1.12,-5.65 3.34,-8.27 2.23,-2.62 4.87,-4.28 7.92,-4.98 7.58,-1.64 11.37,-4.77 11.37,-9.38 0,-1.8 -0.74,-3.33 -2.23,-4.58 8.29,-10.08 14.62,-17.9 19,-23.45 -0.31,2.35 -0.47,5.28 -0.47,8.79 0,4.31 0.08,7.61 0.24,9.91 z"
   id="path44" />
			</g>
			<path
   class="st0"
   d="m 683.81,438 c -0.1,0.18 -0.22,0.36 -0.33,0.54 L 539.97,438.05 526.11,438 Z"
   id="path48" />
		</g>
		<path
   class="st0"
   d="m 892,438 c -0.01,0.04 -0.01,0.07 -0.02,0.11 -0.23,0.38 -0.46,0.77 -0.7,1.15 h -0.63 L 683.48,438.54 539.97,438.05 526.11,438 Z"
   id="path52" />
	</g>
</g>
<g
   id="Layer_2"
   class="st1">
</g>
</svg>
